<?xml version="1.0" encoding="UTF-8"?>
<!DOCTYPE svg PUBLIC "-//W3C//DTD SVG 1.1//EN" "http://www.w3.org/Graphics/SVG/1.1/DTD/svg11.dtd">
<svg xmlns="http://www.w3.org/2000/svg" version="1.1" width="365px" height="183px" style="shape-rendering:geometricPrecision; text-rendering:geometricPrecision; image-rendering:optimizeQuality; fill-rule:evenodd; clip-rule:evenodd" xmlns:xlink="http://www.w3.org/1999/xlink">
<g><path style="opacity:0.694" fill="#020202" d="M 77.5,74.5 C 78.3764,74.3691 79.0431,74.7025 79.5,75.5C 77.4309,78.5725 74.7642,80.9059 71.5,82.5C 72.0283,81.1526 72.195,79.8193 72,78.5C 69.59,81.3968 67.4233,84.3968 65.5,87.5C 64.8333,87.5 64.1667,87.5 63.5,87.5C 60.9549,86.5729 58.6216,86.5729 56.5,87.5C 57.2625,90.6383 55.9291,92.805 52.5,94C 53.7487,95.8241 54.9153,95.6574 56,93.5C 56.3418,95.6192 57.1751,95.9526 58.5,94.5C 58.9377,95.5063 59.6043,95.5063 60.5,94.5C 61.7562,94.4614 62.7562,94.9614 63.5,96C 61.9194,96.7065 60.4194,97.5399 59,98.5C 58.6012,98.2716 58.4346,97.9382 58.5,97.5C 58.1034,96.475 57.4368,96.3083 56.5,97C 55.5,98 54.5,99 53.5,100C 54.0944,100.464 54.7611,100.631 55.5,100.5C 56.2389,100.369 56.9056,100.536 57.5,101C 54.9891,103.179 52.8224,105.679 51,108.5C 50.805,107.181 50.9717,105.847 51.5,104.5C 52.8333,104.167 52.8333,103.833 51.5,103.5C 50.8333,103.5 50.5,103.833 50.5,104.5C 49.8333,104.5 49.5,104.833 49.5,105.5C 48.5041,105.586 47.6708,105.252 47,104.5C 41.8416,96.7093 36.8416,89.3759 32,82.5C 31.5001,95.1623 31.3334,107.829 31.5,120.5C 29.5328,120.261 27.6995,120.594 26,121.5C 25.1667,120.667 24.3333,119.833 23.5,119C 23.8198,99.9842 23.8198,80.9842 23.5,62C 24.5358,60.3831 25.7025,60.2164 27,61.5C 30.9718,67.6379 35.1384,73.6379 39.5,79.5C 40.3324,68.8489 40.8324,58.1822 41,47.5C 66.6198,40.8627 77.6198,50.8627 74,77.5C 75.0391,76.2899 76.2058,75.2899 77.5,74.5 Z M 44.5,85.5 C 45.1499,85.8039 45.8165,86.1373 46.5,86.5C 47.4988,75.5202 47.8321,64.5202 47.5,53.5C 64.0955,51.2637 70.2622,58.2637 66,74.5C 60.3134,80.6856 54.8134,87.0189 49.5,93.5C 47.023,91.3529 45.3563,88.6863 44.5,85.5 Z M 40.5,80.5 C 41.2891,80.7828 41.9558,81.2828 42.5,82C 41.184,82.5281 40.5173,82.0281 40.5,80.5 Z"/></g>
<g><path style="opacity:0.698" fill="#020202" d="M 67.5,98.5 C 69.8437,97.0834 72.1771,95.7501 74.5,94.5C 74.7761,105.207 74.2761,115.873 73,126.5C 69.6128,131.216 65.1128,134.383 59.5,136C 53.2511,136.809 47.0844,136.642 41,135.5C 40.3333,129.5 40.3333,123.5 41,117.5C 44.4413,113.898 47.2747,109.898 49.5,105.5C 50.1667,105.5 50.5,105.167 50.5,104.5C 50.5,103.833 50.8333,103.5 51.5,103.5C 51.5,103.833 51.5,104.167 51.5,104.5C 50.9717,105.847 50.805,107.181 51,108.5C 52.8224,105.679 54.9891,103.179 57.5,101C 56.9056,100.536 56.2389,100.369 55.5,100.5C 56.1667,99.1667 57.1667,98.1667 58.5,97.5C 58.4346,97.9382 58.6012,98.2716 59,98.5C 60.4194,97.5399 61.9194,96.7065 63.5,96C 62.7562,94.9614 61.7562,94.4614 60.5,94.5C 62.5547,92.4451 64.2213,90.1117 65.5,87.5C 67.5,85.8333 69.5,84.1667 71.5,82.5C 74.7642,80.9059 77.4309,78.5725 79.5,75.5C 79.0431,74.7025 78.3764,74.3691 77.5,74.5C 81.3258,70.1983 85.1591,65.865 89,61.5C 89.3333,61.8333 89.6667,62.1667 90,62.5C 90.5,81.8305 90.6666,101.164 90.5,120.5C 87.8806,120.768 85.3806,120.435 83,119.5C 82.6667,106.5 82.3333,93.5 82,80.5C 76.9535,86.3744 72.1202,92.3744 67.5,98.5 Z M 67.5,98.5 C 67.5,99.8333 66.8333,100.5 65.5,100.5C 65.8333,99.5 66.5,98.8333 67.5,98.5 Z M 65.5,100.5 C 65.9159,105.154 66.2493,109.82 66.5,114.5C 67.863,120.596 65.863,125.096 60.5,128C 56.1794,128.499 51.8461,128.666 47.5,128.5C 47.3359,125.813 47.5026,123.146 48,120.5C 53.6152,113.574 59.4485,106.907 65.5,100.5 Z"/></g>
<g><path style="opacity:0.653" fill="#010101" d="M 190.5,66.5 C 194.266,66.5818 197.266,68.0818 199.5,71C 198.845,72.4866 197.845,73.6533 196.5,74.5C 193.928,72.148 191.262,71.9814 188.5,74C 192.268,74.9771 195.768,76.4771 199,78.5C 201.743,85.7684 199.243,89.7684 191.5,90.5C 188.408,90.1918 185.575,89.1918 183,87.5C 182.161,88.6241 180.994,89.2908 179.5,89.5C 177.176,87.8737 174.676,86.5404 172,85.5C 169.324,86.5404 166.824,87.8737 164.5,89.5C 163.5,89.1667 162.5,88.8333 161.5,88.5C 163.765,82.204 165.932,75.8706 168,69.5C 170.218,67.3813 172.718,67.048 175.5,68.5C 177.962,74.3856 180.129,80.3856 182,86.5C 182.953,84.5448 184.287,82.8782 186,81.5C 187.848,84.0414 190.348,85.0414 193.5,84.5C 193.5,83.5 193.5,82.5 193.5,81.5C 188.058,81.8976 184.391,79.5642 182.5,74.5C 183.552,70.1142 186.219,67.4476 190.5,66.5 Z M 171.5,75.5 C 172.249,76.531 172.915,77.6976 173.5,79C 172.5,79.6667 171.5,79.6667 170.5,79C 171.337,77.9887 171.67,76.8221 171.5,75.5 Z"/></g>
<g><path style="opacity:0.688" fill="#010101" d="M 105.5,67.5 C 119.421,64.2665 125.588,69.5998 124,83.5C 122.878,85.6238 121.378,87.4571 119.5,89C 114.511,89.4993 109.511,89.6659 104.5,89.5C 104.203,82.0796 104.536,74.7463 105.5,67.5 Z M 110.5,72.5 C 115.39,71.8869 118.056,74.0536 118.5,79C 118.089,83.9287 115.422,85.762 110.5,84.5C 110.5,80.5 110.5,76.5 110.5,72.5 Z"/></g>
<g><path style="opacity:0.654" fill="#010101" d="M 128.5,67.5 C 130.144,67.2865 131.644,67.6198 133,68.5C 133.5,75.4921 133.666,82.4921 133.5,89.5C 131.5,89.5 129.5,89.5 127.5,89.5C 127.203,82.0796 127.536,74.7463 128.5,67.5 Z"/></g>
<g><path style="opacity:0.669" fill="#010101" d="M 137.5,67.5 C 139.792,67.2436 141.959,67.5769 144,68.5C 145.014,72.3775 146.514,76.0442 148.5,79.5C 150.486,76.0442 151.986,72.3775 153,68.5C 155.064,67.4086 157.231,67.2419 159.5,68C 160.48,75.0787 160.813,82.2454 160.5,89.5C 158.5,89.5 156.5,89.5 154.5,89.5C 154.736,77.7382 153.736,77.7382 151.5,89.5C 149.396,89.7989 147.396,89.4656 145.5,88.5C 143.08,80.5188 142.08,80.8521 142.5,89.5C 140.5,89.5 138.5,89.5 136.5,89.5C 136.203,82.0796 136.536,74.7463 137.5,67.5 Z"/></g>
<g><path style="opacity:0.764" fill="#090909" d="M 63.5,87.5 C 62.2464,90.0934 60.5798,92.4268 58.5,94.5C 57.1751,95.9526 56.3418,95.6192 56,93.5C 54.9153,95.6574 53.7487,95.8241 52.5,94C 55.9291,92.805 57.2625,90.6383 56.5,87.5C 58.6216,86.5729 60.9549,86.5729 63.5,87.5 Z"/></g>
<g><path style="opacity:0.45" fill="#050505" d="M 152.5,99.5 C 153.5,99.5 154.5,99.5 155.5,99.5C 155.5,105.167 155.5,110.833 155.5,116.5C 152.266,117.127 149.099,117.127 146,116.5C 141.352,112.24 141.519,108.074 146.5,104C 148.134,103.506 149.801,103.34 151.5,103.5C 151.433,102.041 151.766,100.708 152.5,99.5 Z M 148.5,106.5 C 151.021,108.03 152.021,110.364 151.5,113.5C 146.161,113.177 145.161,110.843 148.5,106.5 Z"/></g>
<g><path style="opacity:0.389" fill="#040404" d="M 216.5,99.5 C 228.503,99.5981 231.837,104.931 226.5,115.5C 222.571,116.433 218.571,116.766 214.5,116.5C 214.334,111.489 214.501,106.489 215,101.5C 215.717,100.956 216.217,100.289 216.5,99.5 Z M 218.5,103.5 C 224.684,103.51 226.684,106.51 224.5,112.5C 222.604,113.466 220.604,113.799 218.5,113.5C 218.5,110.167 218.5,106.833 218.5,103.5 Z"/></g>
<g><path style="opacity:0.359" fill="#020202" d="M 231.5,99.5 C 232.5,99.5 233.5,99.5 234.5,99.5C 234.196,105.007 234.196,110.674 234.5,116.5C 233.167,116.5 231.833,116.5 230.5,116.5C 230.469,110.595 230.803,104.929 231.5,99.5 Z"/></g>
<g><path style="opacity:0.826" fill="#0b0b0b" d="M 275.5,100.5 C 275.56,99.9569 275.893,99.6236 276.5,99.5C 277.493,104.12 277.827,108.786 277.5,113.5C 276.923,114.773 276.257,114.773 275.5,113.5C 276.665,109.081 276.665,104.747 275.5,100.5 Z"/></g>
<g><path style="opacity:0.346" fill="#050505" d="M 162.5,99.5 C 163.239,99.369 163.906,99.5357 164.5,100C 165.479,102.137 166.812,103.971 168.5,105.5C 169.711,103.578 171.044,101.745 172.5,100C 173.725,99.4372 174.725,99.7705 175.5,101C 172.19,105.767 170.19,110.933 169.5,116.5C 168.5,116.5 167.5,116.5 166.5,116.5C 166.404,111.138 164.738,106.305 161.5,102C 161.743,101.098 162.077,100.265 162.5,99.5 Z"/></g>
<g><path style="opacity:0.216" fill="#010101" d="M 275.5,100.5 C 276.665,104.747 276.665,109.081 275.5,113.5C 276.257,114.773 276.923,114.773 277.5,113.5C 280.739,114.814 280.905,116.147 278,117.5C 277.127,117.265 276.293,116.931 275.5,116.5C 274.185,111.014 274.185,105.68 275.5,100.5 Z"/></g>
<g><path style="opacity:0.42" fill="#050505" d="M 255.5,101.5 C 257.282,102.72 259.282,103.386 261.5,103.5C 261.5,104.5 261.5,105.5 261.5,106.5C 260.167,106.5 258.833,106.5 257.5,106.5C 257.5,108.833 257.5,111.167 257.5,113.5C 258.873,113.657 260.207,113.49 261.5,113C 262.257,111.488 263.257,110.154 264.5,109C 262.408,108.047 262.075,106.714 263.5,105C 266.54,102.845 269.373,103.012 272,105.5C 272.337,108.861 272.837,112.194 273.5,115.5C 273.167,116.167 272.833,116.833 272.5,117.5C 270.689,116.264 268.856,116.264 267,117.5C 264.849,117.235 263.182,116.235 262,114.5C 260.272,118.176 257.939,118.509 255,115.5C 254.963,111.911 254.13,108.578 252.5,105.5C 253.524,104.148 254.524,102.815 255.5,101.5 Z M 266.5,106.5 C 267.376,106.369 268.043,106.702 268.5,107.5C 266.192,108.873 265.525,108.54 266.5,106.5 Z M 266.5,111.5 C 267.376,111.369 268.043,111.702 268.5,112.5C 266.192,113.873 265.525,113.54 266.5,111.5 Z"/></g>
<g><path style="opacity:0.289" fill="#020202" d="M 105.5,100.5 C 108.44,99.1701 111.44,99.3367 114.5,101C 115.515,104.648 116.515,108.314 117.5,112C 117.097,113.473 116.43,114.806 115.5,116C 111.848,116.499 108.182,116.665 104.5,116.5C 104.179,110.974 104.512,105.64 105.5,100.5 Z M 110.5,103.5 C 112.048,103.821 112.715,104.821 112.5,106.5C 110.833,106.5 109.167,106.5 107.5,106.5C 107.5,105.5 107.5,104.5 107.5,103.5C 108.5,103.5 109.5,103.5 110.5,103.5 Z M 111.5,109.5 C 113.104,110.287 113.771,111.62 113.5,113.5C 111.5,113.5 109.5,113.5 107.5,113.5C 107.5,112.167 107.5,110.833 107.5,109.5C 108.833,109.5 110.167,109.5 111.5,109.5 Z"/></g>
<g><path style="opacity:0.74" fill="#0c0c0c" d="M 105.5,100.5 C 107.039,101.767 108.706,102.767 110.5,103.5C 109.5,103.5 108.5,103.5 107.5,103.5C 107.5,104.5 107.5,105.5 107.5,106.5C 108.952,107.302 110.618,107.802 112.5,108C 111.944,108.383 111.611,108.883 111.5,109.5C 110.167,109.5 108.833,109.5 107.5,109.5C 107.5,110.833 107.5,112.167 107.5,113.5C 106.778,113.918 106.278,114.584 106,115.5C 105.833,114.833 105.667,114.167 105.5,113.5C 106.552,109.309 106.552,104.976 105.5,100.5 Z"/></g>
<g><path style="opacity:0.385" fill="#020202" d="M 119.5,103.5 C 121.237,106.008 122.07,109.008 122,112.5C 123.011,113.337 124.178,113.67 125.5,113.5C 125.336,110.813 125.503,108.146 126,105.5C 126.689,104.643 127.522,103.977 128.5,103.5C 129.492,107.783 129.826,112.116 129.5,116.5C 125.771,117.99 122.271,117.657 119,115.5C 118.238,111.413 118.404,107.413 119.5,103.5 Z"/></g>
<g><path style="opacity:0.376" fill="#040404" d="M 177.5,103.5 C 184.88,103.553 187.38,107.22 185,114.5C 180.912,118.466 177.246,118.133 174,113.5C 173.333,111.5 173.333,109.5 174,107.5C 175.376,106.295 176.542,104.962 177.5,103.5 Z M 179.5,106.5 C 182.139,107.706 182.972,109.706 182,112.5C 180.644,113.38 179.144,113.714 177.5,113.5C 177.185,110.789 177.852,108.456 179.5,106.5 Z"/></g>
<g><path style="opacity:0.383" fill="#030303" d="M 190.5,105.5 C 189.235,106.514 188.569,108.014 188.5,110C 188.833,111.5 189.167,113 189.5,114.5C 190.107,114.376 190.44,114.043 190.5,113.5C 191.833,113.5 193.167,113.5 194.5,113.5C 194.335,110.482 194.502,107.482 195,104.5C 196.011,103.663 197.178,103.33 198.5,103.5C 198.5,107.833 198.5,112.167 198.5,116.5C 187.954,119.111 184.454,115.111 188,104.5C 189.461,103.117 190.294,103.451 190.5,105.5 Z"/></g>
<g><path style="opacity:0.351" fill="#030303" d="M 335.5,108.5 C 336.167,107.833 336.833,107.167 337.5,106.5C 337.796,108.403 338.463,110.07 339.5,111.5C 341.065,113.719 343.065,114.052 345.5,112.5C 347.679,114.1 347.346,115.6 344.5,117C 340.796,117.77 337.963,116.603 336,113.5C 333.713,117.53 330.546,118.364 326.5,116C 322.5,112.333 322.5,108.667 326.5,105C 331.32,102.173 334.32,103.34 335.5,108.5 Z M 335.5,108.5 C 335.657,109.873 335.49,111.207 335,112.5C 332.923,113.378 330.59,113.378 328,112.5C 327.175,110.299 327.675,108.466 329.5,107C 331.35,107.595 333.35,108.095 335.5,108.5 Z"/></g>
<g><path style="opacity:0.418" fill="#030303" d="M 132.5,99.5 C 133.5,99.5 134.5,99.5 135.5,99.5C 135.204,105.06 135.204,110.727 135.5,116.5C 134.167,116.5 132.833,116.5 131.5,116.5C 131.469,110.595 131.803,104.929 132.5,99.5 Z"/></g>
<g><path style="opacity:0.825" fill="#101010" d="M 140.5,101.5 C 140.5,105.5 140.5,109.5 140.5,113.5C 140.44,114.043 140.107,114.376 139.5,114.5C 139.167,112.333 138.833,110.167 138.5,108C 138.533,105.39 139.2,103.223 140.5,101.5 Z"/></g>
<g><path style="opacity:0.235" fill="#040404" d="M 201.5,103.5 C 203.669,104.082 206.002,104.082 208.5,103.5C 208.5,104.833 208.5,106.167 208.5,107.5C 207.022,107.238 205.689,107.571 204.5,108.5C 203.607,111.084 203.274,113.751 203.5,116.5C 202.5,116.5 201.5,116.5 200.5,116.5C 200.231,112.069 200.564,107.735 201.5,103.5 Z"/></g>
<g><path style="opacity:0.496" fill="#020202" d="M 248.5,99.5 C 250.346,99.2222 251.68,99.8888 252.5,101.5C 251.552,106.435 251.219,111.435 251.5,116.5C 250.5,116.5 249.5,116.5 248.5,116.5C 248.849,110.409 248.849,104.743 248.5,99.5 Z"/></g>
<g><path style="opacity:0.508" fill="#030303" d="M 300.5,103.5 C 303.007,103.805 305.674,103.971 308.5,104C 310.774,106.344 311.941,109.178 312,112.5C 312.465,111.069 313.299,109.903 314.5,109C 312.842,108.275 312.342,107.108 313,105.5C 316.075,102.941 319.075,102.941 322,105.5C 322.337,108.861 322.837,112.194 323.5,115.5C 323.167,116.167 322.833,116.833 322.5,117.5C 320.689,116.264 318.856,116.264 317,117.5C 314.366,117.077 312.366,115.744 311,113.5C 309.401,116.886 306.901,117.886 303.5,116.5C 302.548,118.045 302.215,119.712 302.5,121.5C 301.5,121.5 300.5,121.5 299.5,121.5C 299.211,115.409 299.545,109.409 300.5,103.5 Z M 304.5,106.5 C 305.496,106.414 306.329,106.748 307,107.5C 307.495,109.473 307.662,111.473 307.5,113.5C 302.085,113.275 301.085,110.942 304.5,106.5 Z M 316.5,106.5 C 317.376,106.369 318.043,106.702 318.5,107.5C 316.192,108.873 315.525,108.54 316.5,106.5 Z M 316.5,111.5 C 317.376,111.369 318.043,111.702 318.5,112.5C 316.192,113.873 315.525,113.54 316.5,111.5 Z"/></g>
<g><path style="opacity:0.287" fill="#040404" d="M 244.5,102.5 C 245.748,103.334 246.415,104.667 246.5,106.5C 247.052,109.906 245.719,112.073 242.5,113C 247.637,114.238 248.637,116.905 245.5,121C 235.932,123.773 233.265,120.773 237.5,112C 236.074,109.289 236.408,106.789 238.5,104.5C 240.657,103.95 242.657,103.283 244.5,102.5 Z M 240.5,106.5 C 242.048,106.821 242.715,107.821 242.5,109.5C 239.752,109.598 239.086,108.598 240.5,106.5 Z M 239.5,116.5 C 240.978,116.238 242.311,116.571 243.5,117.5C 242.833,117.833 242.167,118.167 241.5,118.5C 240.287,118.253 239.62,117.586 239.5,116.5 Z"/></g>
<g><path style="opacity:0.296" fill="#040404" d="M 347.5,110.5 C 343.599,110.317 340.266,108.984 337.5,106.5C 340.588,102.542 343.755,102.542 347,106.5C 347.49,107.793 347.657,109.127 347.5,110.5 Z M 341.5,106.5 C 344.137,108.154 343.803,108.654 340.5,108C 341.056,107.617 341.389,107.117 341.5,106.5 Z"/></g>
<g><path style="opacity:0.895" fill="#121212" d="M 190.5,105.5 C 190.5,108.167 190.5,110.833 190.5,113.5C 190.44,114.043 190.107,114.376 189.5,114.5C 189.167,113 188.833,111.5 188.5,110C 188.569,108.014 189.235,106.514 190.5,105.5 Z"/></g>
<g><path style="opacity:0.42" fill="#030303" d="M 289.5,99.5 C 291.861,99.6741 294.194,100.007 296.5,100.5C 296.5,101.833 296.5,103.167 296.5,104.5C 294.105,103.637 291.771,103.637 289.5,104.5C 291.678,105.979 294.012,107.312 296.5,108.5C 297.87,116.655 294.536,119.155 286.5,116C 285.07,114.12 285.404,112.62 287.5,111.5C 289.173,113.086 291.173,113.753 293.5,113.5C 293.719,112.325 293.386,111.325 292.5,110.5C 284.5,108.471 283.5,104.804 289.5,99.5 Z"/></g>
<g><path style="opacity:0.457" fill="#0f0f0f" d="M 337.5,106.5 C 340.266,108.984 343.599,110.317 347.5,110.5C 345.052,111.473 342.385,111.806 339.5,111.5C 338.463,110.07 337.796,108.403 337.5,106.5 Z"/></g>
<g><path style="opacity:0.42" fill="#030303" d="M 140.5,101.5 C 139.2,103.223 138.533,105.39 138.5,108C 138.833,110.167 139.167,112.333 139.5,114.5C 140.107,114.376 140.44,114.043 140.5,113.5C 143.739,114.814 143.905,116.147 141,117.5C 140.127,117.265 139.293,116.931 138.5,116.5C 137.337,111.198 137.171,105.864 138,100.5C 139.461,99.1175 140.294,99.4508 140.5,101.5 Z"/></g>
</svg>
