<?xml version="1.0" encoding="UTF-8"?>
<!DOCTYPE svg PUBLIC "-//W3C//DTD SVG 1.1//EN" "http://www.w3.org/Graphics/SVG/1.1/DTD/svg11.dtd">
<svg xmlns="http://www.w3.org/2000/svg" version="1.1" width="389px" height="195px" style="shape-rendering:geometricPrecision; text-rendering:geometricPrecision; image-rendering:optimizeQuality; fill-rule:evenodd; clip-rule:evenodd" xmlns:xlink="http://www.w3.org/1999/xlink">
<g><path style="opacity:0.532" fill="#828282" d="M 72.5,58.5 C 74.9339,59.7713 76.4339,61.7713 77,64.5C 77.4988,68.4862 77.6655,72.4862 77.5,76.5C 76.6773,73.023 76.1773,69.3563 76,65.5C 75.0112,63.0302 73.8446,60.6968 72.5,58.5 Z"/></g>
<g><path style="opacity:0.373" fill="#4d4d4d" d="M 90.5,69.5 C 87.9536,74.7186 84.2869,79.0519 79.5,82.5C 82.7978,77.8677 86.4645,73.5344 90.5,69.5 Z"/></g>
<g><path style="opacity:0.482" fill="#878787" d="M 90.5,69.5 C 90.56,68.9569 90.8933,68.6236 91.5,68.5C 92.8275,86.9956 92.8275,105.329 91.5,123.5C 91.8301,105.326 91.4968,87.3256 90.5,69.5 Z"/></g>
<g><path style="opacity:0.06" fill="#1b1c1c" d="M 144.5,80.5 C 142.379,80.3253 140.379,80.6586 138.5,81.5C 138.97,80.3065 139.97,79.6399 141.5,79.5C 142.726,79.5195 143.726,79.8529 144.5,80.5 Z"/></g>
<g><path style="opacity:0.905" fill="#e8e8e8" d="M 204.5,79.5 C 206.099,79.2322 207.432,79.5655 208.5,80.5C 208.557,81.609 208.89,82.609 209.5,83.5C 209.144,84.8699 208.31,85.8699 207,86.5C 205.105,84.8179 202.938,84.3179 200.5,85C 199.262,85.69 199.262,86.19 200.5,86.5C 201.918,88.3079 203.918,88.9746 206.5,88.5C 207.492,88.3284 208.158,88.6618 208.5,89.5C 209.167,91.8333 209.833,94.1667 210.5,96.5C 210.439,99.7301 208.772,101.563 205.5,102C 201.361,102.87 197.694,102.037 194.5,99.5C 194.358,95.7769 195.691,94.9436 198.5,97C 200.81,97.4966 203.143,97.6633 205.5,97.5C 205.768,95.901 205.434,94.5676 204.5,93.5C 202.073,93.477 199.74,92.977 197.5,92C 195.574,91.5776 194.574,90.4109 194.5,88.5C 194.633,82.0366 197.966,79.0366 204.5,79.5 Z"/></g>
<g><path style="opacity:0.144" fill="#505050" d="M 129.5,80.5 C 125.167,80.5 120.833,80.5 116.5,80.5C 116.5,87.5 116.5,94.5 116.5,101.5C 115.508,94.3524 115.175,87.0191 115.5,79.5C 120.363,79.1805 125.03,79.5139 129.5,80.5 Z"/></g>
<g><path style="opacity:0.912" fill="#ededed" d="M 129.5,80.5 C 131.027,80.427 132.027,81.0937 132.5,82.5C 134.183,86.6358 134.85,90.9691 134.5,95.5C 134.152,98.0193 132.819,99.8526 130.5,101C 125.845,101.499 121.179,101.666 116.5,101.5C 116.5,94.5 116.5,87.5 116.5,80.5C 120.833,80.5 125.167,80.5 129.5,80.5 Z M 129.5,87.5 C 129.599,90.2372 129.265,92.9039 128.5,95.5C 126.236,96.2186 123.903,96.552 121.5,96.5C 121.5,92.5 121.5,88.5 121.5,84.5C 124.788,84.0156 127.455,85.0156 129.5,87.5 Z"/></g>
<g><path style="opacity:0.824" fill="#dadadb" d="M 144.5,80.5 C 144.5,87.5 144.5,94.5 144.5,101.5C 142.167,101.5 139.833,101.5 137.5,101.5C 137.176,94.6457 137.509,87.979 138.5,81.5C 140.379,80.6586 142.379,80.3253 144.5,80.5 Z"/></g>
<g><path style="opacity:0.141" fill="#585858" d="M 156.5,85.5 C 155.069,84.2196 154.402,82.5529 154.5,80.5C 152.5,80.5 150.5,80.5 148.5,80.5C 148.5,87.5 148.5,94.5 148.5,101.5C 147.508,94.3524 147.175,87.0191 147.5,79.5C 150.167,79.5 152.833,79.5 155.5,79.5C 155.833,81.5 156.167,83.5 156.5,85.5 Z"/></g>
<g><path style="opacity:0.904" fill="#f3f4f4" d="M 156.5,85.5 C 156.899,88.6957 157.899,91.6957 159.5,94.5C 161.955,90.1352 163.622,85.4685 164.5,80.5C 166.5,80.5 168.5,80.5 170.5,80.5C 170.5,87.5 170.5,94.5 170.5,101.5C 169.167,101.5 167.833,101.5 166.5,101.5C 166.823,97.774 166.489,94.1073 165.5,90.5C 164.614,91.325 164.281,92.325 164.5,93.5C 164.648,97.4859 162.981,100.153 159.5,101.5C 156.019,100.153 154.352,97.4859 154.5,93.5C 154.719,92.325 154.386,91.325 153.5,90.5C 152.511,94.1073 152.177,97.774 152.5,101.5C 151.167,101.5 149.833,101.5 148.5,101.5C 148.5,94.5 148.5,87.5 148.5,80.5C 150.5,80.5 152.5,80.5 154.5,80.5C 154.402,82.5529 155.069,84.2196 156.5,85.5 Z"/></g>
<g><path style="opacity:0.909" fill="#f3f3f3" d="M 186.5,80.5 C 187.928,86.784 189.928,92.784 192.5,98.5C 193.167,98.5 193.5,98.8333 193.5,99.5C 193.03,100.693 192.03,101.36 190.5,101.5C 188.448,101.384 187.115,100.384 186.5,98.5C 184.257,97.5258 181.924,97.1924 179.5,97.5C 179.241,101.068 177.241,102.401 173.5,101.5C 175.036,96.8911 176.37,92.2244 177.5,87.5C 178.864,85.78 179.864,83.78 180.5,81.5C 182.396,80.5344 184.396,80.2011 186.5,80.5 Z M 182.5,87.5 C 183.167,88.5 183.833,89.5 184.5,90.5C 183.791,91.404 182.791,91.7373 181.5,91.5C 182.234,90.2921 182.567,88.9587 182.5,87.5 Z"/></g>
<g><path style="opacity:0.247" fill="#575757" d="M 208.5,80.5 C 210.382,81.221 210.715,82.221 209.5,83.5C 208.89,82.609 208.557,81.609 208.5,80.5 Z"/></g>
<g><path style="opacity:0.225" fill="#444444" d="M 186.5,80.5 C 184.396,80.2011 182.396,80.5344 180.5,81.5C 179.864,83.78 178.864,85.78 177.5,87.5C 177.258,80.5255 180.258,78.1922 186.5,80.5 Z"/></g>
<g><path style="opacity:0.149" fill="#434343" d="M 204.5,79.5 C 197.966,79.0366 194.633,82.0366 194.5,88.5C 193.318,80.6862 196.652,77.6862 204.5,79.5 Z"/></g>
<g><path style="opacity:0.171" fill="#626262" d="M 170.5,101.5 C 170.5,94.5 170.5,87.5 170.5,80.5C 168.5,80.5 166.5,80.5 164.5,80.5C 163.622,85.4685 161.955,90.1352 159.5,94.5C 157.899,91.6957 156.899,88.6957 156.5,85.5C 157.751,87.3819 158.918,89.3819 160,91.5C 161.477,87.5701 162.644,83.5701 163.5,79.5C 166.167,79.5 168.833,79.5 171.5,79.5C 171.825,87.0191 171.492,94.3524 170.5,101.5 Z"/></g>
<g><path style="opacity:0.254" fill="#777777" d="M 186.5,80.5 C 189.269,85.8012 191.269,91.4678 192.5,97.5C 192.5,97.8333 192.5,98.1667 192.5,98.5C 189.928,92.784 187.928,86.784 186.5,80.5 Z"/></g>
<g><path style="opacity:0.188" fill="#525151" d="M 78.5,82.5 C 78.8333,82.5 79.1667,82.5 79.5,82.5C 78.2427,85.4274 76.2427,87.7607 73.5,89.5C 73.5,88.8333 73.1667,88.5 72.5,88.5C 72.3284,87.5084 72.6618,86.8417 73.5,86.5C 73.8333,87.8333 74.1667,87.8333 74.5,86.5C 75.1667,86.5 75.5,86.1667 75.5,85.5C 76.1667,85.5 76.5,85.1667 76.5,84.5C 77.5,84.1667 78.1667,83.5 78.5,82.5 Z"/></g>
<g><path style="opacity:0.26" fill="#7f8081" d="M 132.5,82.5 C 133.79,83.0577 134.623,84.0577 135,85.5C 135.808,89.0267 135.641,92.3601 134.5,95.5C 134.85,90.9691 134.183,86.6358 132.5,82.5 Z"/></g>
<g><path style="opacity:0.294" fill="#6e6e6e" d="M 182.5,87.5 C 182.56,86.9569 182.893,86.6236 183.5,86.5C 184.429,87.6888 184.762,89.0222 184.5,90.5C 183.833,89.5 183.167,88.5 182.5,87.5 Z"/></g>
<g><path style="opacity:0.312" fill="#676767" d="M 129.5,87.5 C 130.152,88.4486 130.486,89.6153 130.5,91C 130.693,93.0081 130.026,94.5081 128.5,95.5C 129.265,92.9039 129.599,90.2372 129.5,87.5 Z"/></g>
<g><path style="opacity:0.041" fill="#222222" d="M 200.5,86.5 C 202.626,87.0482 204.626,87.7148 206.5,88.5C 203.918,88.9746 201.918,88.3079 200.5,86.5 Z"/></g>
<g><path style="opacity:0.004" fill="#5b5b5b" d="M 66.5,55.5 C 60.1667,55.5 53.8333,55.5 47.5,55.5C 47.1917,65.9154 47.525,76.2487 48.5,86.5C 49.3382,86.8417 49.6716,87.5084 49.5,88.5C 50.9063,88.9731 51.573,89.9731 51.5,91.5C 51.1667,91.5 50.8333,91.5 50.5,91.5C 50.5,92.1667 50.5,92.8333 50.5,93.5C 46.0599,88.7217 42.3932,83.3883 39.5,77.5C 41.8872,79.9131 44.0539,82.5798 46,85.5C 46.4998,75.172 46.6665,64.8387 46.5,54.5C 53.3543,54.176 60.021,54.5093 66.5,55.5 Z"/></g>
<g><path style="opacity:0.934" fill="#f4f4f4" d="M 90.5,69.5 C 91.4968,87.3256 91.8301,105.326 91.5,123.5C 89.8333,123.5 88.1667,123.5 86.5,123.5C 86.8324,110.816 86.4991,98.1492 85.5,85.5C 84.8933,85.6236 84.56,85.9569 84.5,86.5C 81.5244,90.4815 78.5244,94.4815 75.5,98.5C 74.8333,98.5 74.5,98.8333 74.5,99.5C 73.8333,99.5 73.5,99.8333 73.5,100.5C 72.8333,100.5 72.5,100.833 72.5,101.5C 71.6618,101.842 71.3284,102.508 71.5,103.5C 70.8333,103.5 70.5,103.833 70.5,104.5C 64.5135,110.49 58.8469,116.823 53.5,123.5C 52.5269,125.948 52.1936,128.615 52.5,131.5C 53.8333,131.5 55.1667,131.5 56.5,131.5C 57.1667,131.5 57.8333,131.5 58.5,131.5C 63.0394,132.043 66.8727,130.71 70,127.5C 71.165,119.557 71.9984,111.557 72.5,103.5C 74.0744,103.063 75.2411,102.063 76,100.5C 76.4998,109.494 76.6664,118.494 76.5,127.5C 75.4763,131.362 73.1429,134.195 69.5,136C 66.8987,136.92 64.2321,137.587 61.5,138C 56.7232,138.207 52.0565,138.374 47.5,138.5C 47.0796,131.716 47.5796,125.05 49,118.5C 57.563,109.66 65.3964,100.327 72.5,90.5C 72.5,89.8333 72.8333,89.5 73.5,89.5C 76.2427,87.7607 78.2427,85.4274 79.5,82.5C 84.2869,79.0519 87.9536,74.7186 90.5,69.5 Z M 70.5,104.5 C 70.6663,111.175 70.4996,117.842 70,124.5C 69.2155,126.286 68.0488,127.786 66.5,129C 63.6898,129.782 61.0232,130.616 58.5,131.5C 57.8333,131.5 57.1667,131.5 56.5,131.5C 55.791,130.596 54.791,130.263 53.5,130.5C 53.5,128.167 53.5,125.833 53.5,123.5C 58.8469,116.823 64.5135,110.49 70.5,104.5 Z"/></g>
<g><path style="opacity:0.137" fill="#6d6d6d" d="M 84.5,86.5 C 84.56,85.9569 84.8933,85.6236 85.5,85.5C 86.4991,98.1492 86.8324,110.816 86.5,123.5C 85.8333,111.167 85.1667,98.8333 84.5,86.5 Z"/></g>
<g><path style="opacity:0.188" fill="#4c4c4c" d="M 184.5,90.5 C 185.751,91.472 185.418,92.1386 183.5,92.5C 182.584,92.4573 181.917,92.1239 181.5,91.5C 182.791,91.7373 183.791,91.404 184.5,90.5 Z"/></g>
<g><path style="opacity:0.327" fill="#868787" d="M 154.5,93.5 C 153.833,96.1667 153.167,98.8333 152.5,101.5C 152.177,97.774 152.511,94.1073 153.5,90.5C 154.386,91.325 154.719,92.325 154.5,93.5 Z"/></g>
<g><path style="opacity:0.439" fill="#6c6c6c" d="M 208.5,89.5 C 210.141,90.8705 211.141,92.7039 211.5,95C 211.43,95.7648 211.097,96.2648 210.5,96.5C 209.833,94.1667 209.167,91.8333 208.5,89.5 Z"/></g>
<g><path style="opacity:0.29" fill="#696868" d="M 34.5,69.5 C 32.5134,87.1356 31.8467,105.136 32.5,123.5C 31.1724,104.996 31.1724,86.329 32.5,67.5C 33.5223,67.8555 34.189,68.5222 34.5,69.5 Z"/></g>
<g><path style="opacity:0.975" fill="#ececec" d="M 66.5,55.5 C 69.089,55.461 71.089,56.461 72.5,58.5C 73.8446,60.6968 75.0112,63.0302 76,65.5C 76.1773,69.3563 76.6773,73.023 77.5,76.5C 78.4614,78.2646 78.7947,80.2646 78.5,82.5C 77.1667,82.5 76.5,83.1667 76.5,84.5C 75.8333,84.5 75.5,84.8333 75.5,85.5C 74.8333,85.5 74.5,85.8333 74.5,86.5C 74.1667,86.5 73.8333,86.5 73.5,86.5C 72.6618,86.8417 72.3284,87.5084 72.5,88.5C 71.6618,88.8417 71.3284,89.5084 71.5,90.5C 70.8333,90.5 70.5,90.8333 70.5,91.5C 69.8333,91.5 69.5,91.8333 69.5,92.5C 68.8333,92.5 68.5,92.8333 68.5,93.5C 67.8333,93.5 67.5,93.8333 67.5,94.5C 67.1667,94.5 66.8333,94.5 66.5,94.5C 65.6618,94.8417 65.3284,95.5084 65.5,96.5C 65.5,96.8333 65.5,97.1667 65.5,97.5C 64.8333,97.5 64.5,97.8333 64.5,98.5C 63.8333,98.5 63.5,98.8333 63.5,99.5C 62.8333,99.5 62.5,99.8333 62.5,100.5C 62.5,101.167 62.1667,101.5 61.5,101.5C 61.1667,101.5 60.8333,101.5 60.5,101.5C 59.6618,101.842 59.3284,102.508 59.5,103.5C 59.5,103.833 59.5,104.167 59.5,104.5C 58.8333,104.5 58.5,104.833 58.5,105.5C 57.8333,105.5 57.5,105.833 57.5,106.5C 56.8333,106.5 56.5,106.833 56.5,107.5C 56.1667,107.5 55.8333,107.5 55.5,107.5C 54.6618,107.842 54.3284,108.508 54.5,109.5C 49.8196,105.298 45.9862,100.298 43,94.5C 42.0975,93.2986 40.9308,92.4652 39.5,92C 40.1712,91.0138 40.1712,89.8471 39.5,88.5C 39.44,87.9569 39.1067,87.6236 38.5,87.5C 37.501,99.4815 37.1677,111.482 37.5,123.5C 35.8333,123.5 34.1667,123.5 32.5,123.5C 31.8467,105.136 32.5134,87.1356 34.5,69.5C 34.7497,71.674 35.7497,73.3406 37.5,74.5C 37.427,76.0269 38.0937,77.0269 39.5,77.5C 42.3932,83.3883 46.0599,88.7217 50.5,93.5C 50.5544,95.632 51.5544,96.9653 53.5,97.5C 53.3691,98.3764 53.7025,99.0431 54.5,99.5C 56.2882,98.7174 57.2882,97.3841 57.5,95.5C 59.914,94.0892 61.5806,92.0892 62.5,89.5C 62.5,88.8333 62.8333,88.5 63.5,88.5C 65.914,87.0892 67.5806,85.0892 68.5,82.5C 69.4584,82.0472 70.2917,81.3805 71,80.5C 71.8136,75.9796 71.647,71.6463 70.5,67.5C 69.9424,65.4066 68.6091,63.9066 66.5,63C 62.2695,61.7101 57.9362,61.2101 53.5,61.5C 54.141,71.8893 53.4743,81.8893 51.5,91.5C 51.573,89.9731 50.9063,88.9731 49.5,88.5C 49.6716,87.5084 49.3382,86.8417 48.5,86.5C 47.525,76.2487 47.1917,65.9154 47.5,55.5C 53.8333,55.5 60.1667,55.5 66.5,55.5 Z M 70.5,67.5 C 70.9836,72.7592 70.3169,77.7592 68.5,82.5C 66.086,83.9108 64.4194,85.9108 63.5,88.5C 62.8333,88.5 62.5,88.8333 62.5,89.5C 60.086,90.9108 58.4194,92.9108 57.5,95.5C 56.3951,96.6005 55.0618,97.2671 53.5,97.5C 52.9744,95.7697 51.9744,94.4363 50.5,93.5C 50.5,92.8333 50.5,92.1667 50.5,91.5C 50.8333,91.5 51.1667,91.5 51.5,91.5C 53.4743,81.8893 54.141,71.8893 53.5,61.5C 57.9362,61.2101 62.2695,61.7101 66.5,63C 68.6091,63.9066 69.9424,65.4066 70.5,67.5 Z"/></g>
<g><path style="opacity:0.267" fill="#535353" d="M 62.5,89.5 C 61.5806,92.0892 59.914,94.0892 57.5,95.5C 58.4194,92.9108 60.086,90.9108 62.5,89.5 Z"/></g>
<g><path style="opacity:0.31" fill="#535353" d="M 68.5,82.5 C 67.5806,85.0892 65.914,87.0892 63.5,88.5C 64.4194,85.9108 66.086,83.9108 68.5,82.5 Z"/></g>
<g><path style="opacity:0.341" fill="#777777" d="M 37.5,74.5 C 38.9063,74.9731 39.573,75.9731 39.5,77.5C 38.0937,77.0269 37.427,76.0269 37.5,74.5 Z"/></g>
<g><path style="opacity:0.215" fill="#636363" d="M 70.5,67.5 C 71.647,71.6463 71.8136,75.9796 71,80.5C 70.2917,81.3805 69.4584,82.0472 68.5,82.5C 70.3169,77.7592 70.9836,72.7592 70.5,67.5 Z"/></g>
<g><path style="opacity:0.178" fill="#6d6d6d" d="M 34.5,69.5 C 36.2503,70.6594 37.2503,72.326 37.5,74.5C 35.7497,73.3406 34.7497,71.674 34.5,69.5 Z"/></g>
<g><path style="opacity:0.135" fill="#5a5a5a" d="M 177.5,87.5 C 176.37,92.2244 175.036,96.8911 173.5,101.5C 172.903,101.265 172.57,100.765 172.5,100C 173.704,95.534 175.371,91.3674 177.5,87.5 Z"/></g>
<g><path style="opacity:0.298" fill="#707171" d="M 166.5,101.5 C 165.833,98.8333 165.167,96.1667 164.5,93.5C 164.281,92.325 164.614,91.325 165.5,90.5C 166.489,94.1073 166.823,97.774 166.5,101.5 Z"/></g>
<g><path style="opacity:0.243" fill="#636363" d="M 50.5,93.5 C 51.9744,94.4363 52.9744,95.7697 53.5,97.5C 51.5544,96.9653 50.5544,95.632 50.5,93.5 Z"/></g>
<g><path style="opacity:0.19" fill="#898989" d="M 39.5,88.5 C 38.8333,100.167 38.1667,111.833 37.5,123.5C 37.1677,111.482 37.501,99.4815 38.5,87.5C 39.1067,87.6236 39.44,87.9569 39.5,88.5 Z"/></g>
<g><path style="opacity:0.042" fill="#242424" d="M 128.5,95.5 C 127.688,96.9931 126.355,97.6598 124.5,97.5C 123.274,97.4805 122.274,97.1471 121.5,96.5C 123.903,96.552 126.236,96.2186 128.5,95.5 Z"/></g>
<g><path style="opacity:0.038" fill="#363737" d="M 204.5,93.5 C 205.434,94.5676 205.768,95.901 205.5,97.5C 203.143,97.6633 200.81,97.4966 198.5,97C 195.691,94.9436 194.358,95.7769 194.5,99.5C 194.167,99.5 193.833,99.5 193.5,99.5C 193.5,98.8333 193.167,98.5 192.5,98.5C 192.5,98.1667 192.5,97.8333 192.5,97.5C 194.215,93.2868 196.548,92.7868 199.5,96C 201.134,96.4935 202.801,96.6602 204.5,96.5C 204.5,95.5 204.5,94.5 204.5,93.5 Z"/></g>
<g><path style="opacity:0.161" fill="#626161" d="M 57.5,95.5 C 57.2882,97.3841 56.2882,98.7174 54.5,99.5C 53.7025,99.0431 53.3691,98.3764 53.5,97.5C 55.0618,97.2671 56.3951,96.6005 57.5,95.5 Z"/></g>
<g><path style="opacity:0.349" fill="#545454" d="M 71.5,90.5 C 71.8333,90.5 72.1667,90.5 72.5,90.5C 65.3964,100.327 57.563,109.66 49,118.5C 47.5796,125.05 47.0796,131.716 47.5,138.5C 46.3467,132.347 46.18,126.014 47,119.5C 49.4913,116.01 52.3246,112.843 55.5,110C 55.2716,109.601 54.9382,109.435 54.5,109.5C 54.3284,108.508 54.6618,107.842 55.5,107.5C 55.8333,108.833 56.1667,108.833 56.5,107.5C 57.1667,107.5 57.5,107.167 57.5,106.5C 58.1667,106.5 58.5,106.167 58.5,105.5C 59.1667,105.5 59.5,105.167 59.5,104.5C 60.8333,104.167 60.8333,103.833 59.5,103.5C 59.3284,102.508 59.6618,101.842 60.5,101.5C 60.8333,102.833 61.1667,102.833 61.5,101.5C 62.1667,101.5 62.5,101.167 62.5,100.5C 63.1667,100.5 63.5,100.167 63.5,99.5C 64.1667,99.5 64.5,99.1667 64.5,98.5C 65.1667,98.5 65.5,98.1667 65.5,97.5C 66.8333,97.1667 66.8333,96.8333 65.5,96.5C 65.3284,95.5084 65.6618,94.8417 66.5,94.5C 66.8333,95.8333 67.1667,95.8333 67.5,94.5C 68.1667,94.5 68.5,94.1667 68.5,93.5C 69.1667,93.5 69.5,93.1667 69.5,92.5C 70.1667,92.5 70.5,92.1667 70.5,91.5C 71.1667,91.5 71.5,91.1667 71.5,90.5 Z"/></g>
<g><path style="opacity:0.522" fill="#838383" d="M 75.5,98.5 C 76.7562,98.4614 77.7562,98.9614 78.5,100C 77.8455,109.265 77.1788,118.432 76.5,127.5C 76.6664,118.494 76.4998,109.494 76,100.5C 75.2411,102.063 74.0744,103.063 72.5,103.5C 72.5,102.833 72.5,102.167 72.5,101.5C 73.1667,101.5 73.5,101.167 73.5,100.5C 74.1667,100.5 74.5,100.167 74.5,99.5C 75.1667,99.5 75.5,99.1667 75.5,98.5 Z"/></g>
<g><path style="opacity:0.2" fill="#555555" d="M 71.5,103.5 C 71.8333,103.5 72.1667,103.5 72.5,103.5C 71.9984,111.557 71.165,119.557 70,127.5C 66.8727,130.71 63.0394,132.043 58.5,131.5C 61.0232,130.616 63.6898,129.782 66.5,129C 68.0488,127.786 69.2155,126.286 70,124.5C 70.4996,117.842 70.6663,111.175 70.5,104.5C 71.1667,104.5 71.5,104.167 71.5,103.5 Z"/></g>
<g><path style="opacity:0.053" fill="#222222" d="M 262.5,112.5 C 260.821,112.285 259.821,112.952 259.5,114.5C 258.596,113.791 258.263,112.791 258.5,111.5C 260.099,111.232 261.432,111.566 262.5,112.5 Z"/></g>
<g><path style="opacity:0.026" fill="#2d2d2d" d="M 305.5,112.5 C 299.992,111.678 297.325,114.011 297.5,119.5C 296.012,112.66 298.678,110.327 305.5,112.5 Z"/></g>
<g><path style="opacity:0.298" fill="#535353" d="M 123.5,112.5 C 121.167,112.5 118.833,112.5 116.5,112.5C 116.5,117.833 116.5,123.167 116.5,128.5C 115.511,123.025 115.178,117.358 115.5,111.5C 118.385,111.194 121.052,111.527 123.5,112.5 Z"/></g>
<g><path style="opacity:0.702" fill="#e7e7e7" d="M 123.5,112.5 C 123.833,112.5 124.167,112.5 124.5,112.5C 125.73,114.297 126.396,116.297 126.5,118.5C 128.994,121.744 128.994,124.91 126.5,128C 123.183,128.498 119.85,128.665 116.5,128.5C 116.5,123.167 116.5,117.833 116.5,112.5C 118.833,112.5 121.167,112.5 123.5,112.5 Z M 119.5,115.5 C 120.833,115.5 122.167,115.5 123.5,115.5C 123.306,117.912 121.973,118.912 119.5,118.5C 119.5,117.5 119.5,116.5 119.5,115.5 Z M 124.5,122.5 C 123.952,125.084 122.285,126.084 119.5,125.5C 119.5,124.167 119.5,122.833 119.5,121.5C 121.292,121.366 122.958,121.699 124.5,122.5 Z"/></g>
<g><path style="opacity:0.225" fill="#474747" d="M 175.5,112.5 C 173.952,112.821 173.285,113.821 173.5,115.5C 172.566,114.432 172.232,113.099 172.5,111.5C 173.791,111.263 174.791,111.596 175.5,112.5 Z"/></g>
<g><path style="opacity:0.961" fill="#d3d5d4" d="M 262.5,112.5 C 262.5,113.5 262.5,114.5 262.5,115.5C 261.391,115.443 260.391,115.11 259.5,114.5C 259.821,112.952 260.821,112.285 262.5,112.5 Z"/></g>
<g><path style="opacity:0.682" fill="#cacaca" d="M 288.5,111.5 C 288.042,117.387 288.708,123.054 290.5,128.5C 289.328,129.705 287.995,129.705 286.5,128.5C 285.337,122.863 285.17,117.196 286,111.5C 286.977,110.226 287.811,110.226 288.5,111.5 Z"/></g>
<g><path style="opacity:0.314" fill="#686868" d="M 124.5,112.5 C 125.75,112.577 126.583,113.244 127,114.5C 127.765,116.066 127.598,117.399 126.5,118.5C 126.396,116.297 125.73,114.297 124.5,112.5 Z"/></g>
<g><path style="opacity:0.855" fill="#dee1e0" d="M 244.5,114.5 C 244.5,114.833 244.5,115.167 244.5,115.5C 242.535,115.052 242.202,114.052 243.5,112.5C 244.298,112.957 244.631,113.624 244.5,114.5 Z"/></g>
<g><path style="opacity:0.11" fill="#474747" d="M 272.5,116.5 C 270.234,116.859 268.401,116.192 267,114.5C 265.915,115.736 265.082,117.069 264.5,118.5C 263.903,118.265 263.57,117.765 263.5,117C 264.682,115.321 266.015,113.821 267.5,112.5C 268.386,113.325 268.719,114.325 268.5,115.5C 270.099,115.232 271.432,115.566 272.5,116.5 Z"/></g>
<g><path style="opacity:0.044" fill="#191919" d="M 193.5,116.5 C 191.097,116.448 188.764,116.781 186.5,117.5C 186.167,117.5 185.833,117.5 185.5,117.5C 187.993,115.416 190.66,115.083 193.5,116.5 Z"/></g>
<g><path style="opacity:0.809" fill="#c9c9c9" d="M 236.5,113.5 C 238.095,116.285 239.095,119.285 239.5,122.5C 239.607,124.903 238.607,126.736 236.5,128C 232.848,128.499 229.182,128.665 225.5,128.5C 225.334,123.156 225.501,117.823 226,112.5C 229.728,111.107 233.228,111.44 236.5,113.5 Z M 229.5,115.5 C 232.675,114.909 235.009,115.909 236.5,118.5C 236.833,123.5 234.5,125.833 229.5,125.5C 229.5,122.167 229.5,118.833 229.5,115.5 Z"/></g>
<g><path style="opacity:0.361" fill="#4d4d4d" d="M 256.5,117.5 C 256.631,116.761 256.464,116.094 256,115.5C 253.959,116.423 251.792,116.756 249.5,116.5C 251.961,115.469 254.627,114.802 257.5,114.5C 257.737,115.791 257.404,116.791 256.5,117.5 Z"/></g>
<g><path style="opacity:0.043" fill="#272727" d="M 331.5,116.5 C 329.409,116.318 327.409,116.652 325.5,117.5C 324.614,118.325 324.281,119.325 324.5,120.5C 323.218,119.292 323.218,117.958 324.5,116.5C 326.972,115.234 329.306,115.234 331.5,116.5 Z"/></g>
<g><path style="opacity:0.298" fill="#717171" d="M 137.5,116.5 C 138.209,115.596 139.209,115.263 140.5,115.5C 140.818,120.032 140.485,124.366 139.5,128.5C 140.089,124.029 139.423,120.029 137.5,116.5 Z"/></g>
<g><path style="opacity:0.418" fill="#525252" d="M 319.5,116.5 C 316.833,116.5 314.167,116.5 311.5,116.5C 311.5,122.167 311.5,127.833 311.5,133.5C 310.51,127.69 310.177,121.69 310.5,115.5C 313.713,115.19 316.713,115.523 319.5,116.5 Z"/></g>
<g><path style="opacity:0.271" fill="#595959" d="M 119.5,115.5 C 119.5,116.5 119.5,117.5 119.5,118.5C 121.973,118.912 123.306,117.912 123.5,115.5C 124.791,116.542 124.791,117.708 123.5,119C 121.866,119.494 120.199,119.66 118.5,119.5C 118.232,117.901 118.566,116.568 119.5,115.5 Z M 119.5,115.5 C 120.833,115.5 122.167,115.5 123.5,115.5C 123.306,117.912 121.973,118.912 119.5,118.5C 119.5,117.5 119.5,116.5 119.5,115.5 Z"/></g>
<g><path style="opacity:0.656" fill="#d0d0d0" d="M 132.5,124.5 C 133.708,125.234 135.041,125.567 136.5,125.5C 136.19,122.287 136.523,119.287 137.5,116.5C 139.423,120.029 140.089,124.029 139.5,128.5C 137.801,128.62 136.135,128.954 134.5,129.5C 132.829,129.332 131.496,128.665 130.5,127.5C 130.335,123.818 130.501,120.152 131,116.5C 131.183,119.365 131.683,122.031 132.5,124.5 Z"/></g>
<g><path style="opacity:0.523" fill="#7e7e7e" d="M 154.5,127.5 C 153.462,129.519 152.128,129.853 150.5,128.5C 151.376,128.631 152.043,128.298 152.5,127.5C 150.783,122.388 149.95,117.054 150,111.5C 149.501,117.157 149.334,122.824 149.5,128.5C 148.51,122.69 148.177,116.69 148.5,110.5C 149.5,110.5 150.5,110.5 151.5,110.5C 151.173,115.544 151.506,120.544 152.5,125.5C 153.182,126.243 153.849,126.909 154.5,127.5 Z"/></g>
<g><path style="opacity:0.836" fill="#fafbfb" d="M 150.5,128.5 C 150.167,128.5 149.833,128.5 149.5,128.5C 149.334,122.824 149.501,117.157 150,111.5C 149.95,117.054 150.783,122.388 152.5,127.5C 152.043,128.298 151.376,128.631 150.5,128.5 Z"/></g>
<g><path style="opacity:0.275" fill="#3e3e3e" d="M 162.5,115.5 C 157.108,115.899 154.442,118.899 154.5,124.5C 152.74,117.914 155.406,114.914 162.5,115.5 Z"/></g>
<g><path style="opacity:0.224" fill="#4c4d4d" d="M 185.5,112.5 C 183.127,114.21 180.961,116.21 179,118.5C 176.765,117.104 175.598,115.104 175.5,112.5C 176.804,113.987 177.97,115.654 179,117.5C 180.292,115.751 181.458,113.918 182.5,112C 183.749,111.26 184.749,111.427 185.5,112.5 Z"/></g>
<g><path style="opacity:0.719" fill="#f4f4f4" d="M 208.5,128.5 C 206.453,128.511 204.453,128.844 202.5,129.5C 200.962,129.547 199.962,128.88 199.5,127.5C 199.335,123.818 199.501,120.152 200,116.5C 200.333,119.5 200.667,122.5 201,125.5C 202.667,126.833 204.333,126.833 206,125.5C 206.179,122.447 206.679,119.447 207.5,116.5C 208.491,120.445 208.824,124.445 208.5,128.5 Z"/></g>
<g><path style="opacity:0.308" fill="#5d5d5d" d="M 249.5,116.5 C 248.221,119.002 248.221,121.502 249.5,124C 248.915,125.302 248.249,126.469 247.5,127.5C 246.92,123.351 247.586,119.684 249.5,116.5 Z"/></g>
<g><path style="opacity:0.108" fill="#848484" d="M 288.5,111.5 C 288.981,116.662 289.981,121.829 291.5,127C 291.43,127.765 291.097,128.265 290.5,128.5C 288.708,123.054 288.042,117.387 288.5,111.5 Z"/></g>
<g><path style="opacity:0.928" fill="#e6e6e6" d="M 319.5,116.5 C 319.427,118.027 320.094,119.027 321.5,119.5C 321.5,121.5 321.5,123.5 321.5,125.5C 320.105,129.111 317.605,130.111 314,128.5C 313.95,130.744 313.117,132.411 311.5,133.5C 311.5,127.833 311.5,122.167 311.5,116.5C 314.167,116.5 316.833,116.5 319.5,116.5 Z M 318.5,119.5 C 318.66,121.199 318.494,122.866 318,124.5C 314.691,125.676 313.191,124.343 313.5,120.5C 314.458,120.047 315.292,119.381 316,118.5C 316.671,119.252 317.504,119.586 318.5,119.5 Z"/></g>
<g><path style="opacity:0.467" fill="#5a5a5a" d="M 319.5,116.5 C 320.906,116.973 321.573,117.973 321.5,119.5C 320.094,119.027 319.427,118.027 319.5,116.5 Z"/></g>
<g><path style="opacity:0.24" fill="#6c6d6d" d="M 145.5,128.5 C 144.833,112.5 144.167,112.5 143.5,128.5C 142.511,123.025 142.178,117.358 142.5,111.5C 143.833,111.5 145.167,111.5 146.5,111.5C 146.822,117.358 146.489,123.025 145.5,128.5 Z"/></g>
<g><path style="opacity:0.765" fill="#edf1f0" d="M 143.5,112.5 C 145.465,112.948 145.798,113.948 144.5,115.5C 143.614,114.675 143.281,113.675 143.5,112.5 Z"/></g>
<g><path style="opacity:0.711" fill="#f9fafa" d="M 145.5,128.5 C 144.833,128.5 144.167,128.5 143.5,128.5C 144.167,112.5 144.833,112.5 145.5,128.5 Z"/></g>
<g><path style="opacity:0.384" fill="#5f5f5f" d="M 229.5,115.5 C 229.5,118.833 229.5,122.167 229.5,125.5C 234.5,125.833 236.833,123.5 236.5,118.5C 238.148,124.858 235.482,127.524 228.5,126.5C 228.185,122.629 228.518,118.962 229.5,115.5 Z"/></g>
<g><path style="opacity:0.11" fill="#3b3b3b" d="M 344.5,116.5 C 340.379,115.658 337.379,116.991 335.5,120.5C 335.297,118.61 335.963,117.11 337.5,116C 340.039,115.204 342.372,115.371 344.5,116.5 Z"/></g>
<g><path style="opacity:0.247" fill="#3b3b3b" d="M 355.5,116.5 C 352.212,116.016 349.545,117.016 347.5,119.5C 347.511,117.983 348.177,116.816 349.5,116C 351.712,115.211 353.712,115.378 355.5,116.5 Z"/></g>
<g><path style="opacity:0.91" fill="#d2d3d3" d="M 154.5,127.5 C 154.5,126.5 154.5,125.5 154.5,124.5C 154.442,118.899 157.108,115.899 162.5,115.5C 162.343,114.127 162.51,112.793 163,111.5C 164,110.167 165,110.167 166,111.5C 166.499,117.157 166.666,122.824 166.5,128.5C 162.276,129.913 158.276,129.58 154.5,127.5 Z M 162.5,120.5 C 163.169,124.676 161.669,126.009 158,124.5C 157.51,123.207 157.343,121.873 157.5,120.5C 158.458,120.047 159.292,119.381 160,118.5C 160.708,119.381 161.542,120.047 162.5,120.5 Z"/></g>
<g><path style="opacity:0.903" fill="#cdcece" d="M 175.5,112.5 C 175.598,115.104 176.765,117.104 179,118.5C 180.961,116.21 183.127,114.21 185.5,112.5C 185.938,112.435 186.272,112.601 186.5,113C 182.672,117.484 180.672,122.651 180.5,128.5C 179.5,128.5 178.5,128.5 177.5,128.5C 177.662,126.473 177.495,124.473 177,122.5C 175.807,120.114 174.64,117.78 173.5,115.5C 173.285,113.821 173.952,112.821 175.5,112.5 Z"/></g>
<g><path style="opacity:0.057" fill="#717171" d="M 236.5,113.5 C 238.293,113.884 239.293,115.05 239.5,117C 240.66,118.997 240.66,120.831 239.5,122.5C 239.095,119.285 238.095,116.285 236.5,113.5 Z"/></g>
<g><path style="opacity:0.239" fill="#5f5f5f" d="M 318.5,119.5 C 319.811,121.56 319.811,123.726 318.5,126C 313.414,126.941 311.748,125.108 313.5,120.5C 313.191,124.343 314.691,125.676 318,124.5C 318.494,122.866 318.66,121.199 318.5,119.5 Z"/></g>
<g><path style="opacity:0.078" fill="#444444" d="M 329.5,118.5 C 330.774,119.189 330.774,120.023 329.5,121C 328.207,121.49 326.873,121.657 325.5,121.5C 325.5,121.167 325.5,120.833 325.5,120.5C 325.833,120.5 326.167,120.5 326.5,120.5C 328.027,120.573 329.027,119.906 329.5,118.5 Z"/></g>
<g><path style="opacity:0.271" fill="#5d5d5d" d="M 157.5,120.5 C 157.343,121.873 157.51,123.207 158,124.5C 161.669,126.009 163.169,124.676 162.5,120.5C 164.51,125.986 162.677,127.653 157,125.5C 156.22,123.613 156.387,121.946 157.5,120.5 Z"/></g>
<g><path style="opacity:0.428" fill="#8a8a8a" d="M 259.5,114.5 C 260.391,115.11 261.391,115.443 262.5,115.5C 262.5,119.833 262.5,124.167 262.5,128.5C 261.5,128.5 260.5,128.5 259.5,128.5C 259.5,123.833 259.5,119.167 259.5,114.5 Z"/></g>
<g><path style="opacity:0.795" fill="#d2d3d2" d="M 281.5,116.5 C 282.167,120.5 282.833,124.5 283.5,128.5C 281.453,128.511 279.453,128.844 277.5,129.5C 275.347,129.439 274.014,128.439 273.5,126.5C 273.86,122.642 276.027,120.642 280,120.5C 280.692,119.563 280.525,118.897 279.5,118.5C 277.973,118.427 276.973,119.094 276.5,120.5C 275.833,120.5 275.167,120.5 274.5,120.5C 273.218,119.292 273.218,117.958 274.5,116.5C 276.972,115.234 279.306,115.234 281.5,116.5 Z M 279.5,118.5 C 279.027,119.906 278.027,120.573 276.5,120.5C 276.973,119.094 277.973,118.427 279.5,118.5 Z M 279.5,123.5 C 279.179,125.048 278.179,125.715 276.5,125.5C 276.973,124.094 277.973,123.427 279.5,123.5 Z"/></g>
<g><path style="opacity:0.81" fill="#e7e7e7" d="M 331.5,116.5 C 331.884,120.704 332.884,124.704 334.5,128.5C 332.35,128.342 330.016,128.676 327.5,129.5C 325.347,129.439 324.014,128.439 323.5,126.5C 323.893,124.716 324.559,123.05 325.5,121.5C 326.873,121.657 328.207,121.49 329.5,121C 330.774,120.023 330.774,119.189 329.5,118.5C 327.973,118.427 326.973,119.094 326.5,120.5C 326.167,120.5 325.833,120.5 325.5,120.5C 325.167,120.5 324.833,120.5 324.5,120.5C 324.281,119.325 324.614,118.325 325.5,117.5C 327.409,116.652 329.409,116.318 331.5,116.5 Z M 329.5,118.5 C 329.027,119.906 328.027,120.573 326.5,120.5C 326.973,119.094 327.973,118.427 329.5,118.5 Z M 329.5,123.5 C 329.179,125.048 328.179,125.715 326.5,125.5C 326.973,124.094 327.973,123.427 329.5,123.5 Z"/></g>
<g><path style="opacity:0.275" fill="#7a7a7a" d="M 356.5,116.5 C 358.534,118.655 358.867,120.988 357.5,123.5C 357.326,121.139 356.993,118.806 356.5,116.5 Z"/></g>
<g><path style="opacity:0.318" fill="#6c6c6c" d="M 132.5,124.5 C 131.683,122.031 131.183,119.365 131,116.5C 130.501,120.152 130.335,123.818 130.5,127.5C 129.517,123.702 129.183,119.702 129.5,115.5C 130.5,115.5 131.5,115.5 132.5,115.5C 132.5,118.5 132.5,121.5 132.5,124.5 Z"/></g>
<g><path style="opacity:0.345" fill="#4d4d4d" d="M 219.5,116.5 C 217.167,116.5 214.833,116.5 212.5,116.5C 212.5,120.5 212.5,124.5 212.5,128.5C 211.515,124.366 211.182,120.032 211.5,115.5C 214.385,115.194 217.052,115.527 219.5,116.5 Z"/></g>
<g><path style="opacity:0.885" fill="#d3d4d3" d="M 219.5,116.5 C 219.5,117.5 219.5,118.5 219.5,119.5C 218.022,119.238 216.689,119.571 215.5,120.5C 215.234,123.65 214.234,126.317 212.5,128.5C 212.5,124.5 212.5,120.5 212.5,116.5C 214.833,116.5 217.167,116.5 219.5,116.5 Z"/></g>
<g><path style="opacity:0.239" fill="#6a6a6a" d="M 244.5,114.5 C 244.631,113.624 244.298,112.957 243.5,112.5C 242.202,114.052 242.535,115.052 244.5,115.5C 245.833,119.833 245.833,124.167 244.5,128.5C 243.833,112.5 243.167,112.5 242.5,128.5C 241.511,123.025 241.178,117.358 241.5,111.5C 242.833,111.5 244.167,111.5 245.5,111.5C 245.737,112.791 245.404,113.791 244.5,114.5 Z"/></g>
<g><path style="opacity:0.704" fill="#f8f8f8" d="M 244.5,128.5 C 243.833,128.5 243.167,128.5 242.5,128.5C 243.167,112.5 243.833,112.5 244.5,128.5 Z"/></g>
<g><path style="opacity:0.807" fill="#c7c7c7" d="M 305.5,112.5 C 308.173,112.684 308.84,113.851 307.5,116C 305.114,115.649 302.781,115.815 300.5,116.5C 302.937,117.926 305.437,119.259 308,120.5C 309.984,126.011 308.151,129.011 302.5,129.5C 300.578,129.199 298.912,128.533 297.5,127.5C 297.285,125.821 297.952,124.821 299.5,124.5C 299.97,125.693 300.97,126.36 302.5,126.5C 304.03,126.36 305.03,125.693 305.5,124.5C 302.974,122.546 300.307,120.879 297.5,119.5C 297.325,114.011 299.992,111.678 305.5,112.5 Z"/></g>
<g><path style="opacity:0.859" fill="#e8e9e9" d="M 344.5,116.5 C 344.833,117.833 345.167,119.167 345.5,120.5C 343.61,120.703 342.11,120.037 341,118.5C 340.292,119.381 339.458,120.047 338.5,120.5C 337.387,121.946 337.22,123.613 338,125.5C 340.592,126.982 342.925,126.648 345,124.5C 345.483,125.448 345.649,126.448 345.5,127.5C 342.083,130.352 339.083,130.019 336.5,126.5C 335.659,124.621 335.325,122.621 335.5,120.5C 337.379,116.991 340.379,115.658 344.5,116.5 Z"/></g>
<g><path style="opacity:0.463" fill="#6c6c6c" d="M 208.5,128.5 C 208.824,124.445 208.491,120.445 207.5,116.5C 206.679,119.447 206.179,122.447 206,125.5C 204.333,126.833 202.667,126.833 201,125.5C 200.667,122.5 200.333,119.5 200,116.5C 199.501,120.152 199.335,123.818 199.5,127.5C 198.517,123.702 198.183,119.702 198.5,115.5C 199.5,115.5 200.5,115.5 201.5,115.5C 201.335,118.518 201.502,121.518 202,124.5C 203,125.833 204,125.833 205,124.5C 205.498,121.518 205.665,118.518 205.5,115.5C 206.833,115.5 208.167,115.5 209.5,115.5C 209.818,120.032 209.485,124.366 208.5,128.5 Z"/></g>
<g><path style="opacity:0.749" fill="#d4d4d4" d="M 256.5,117.5 C 258.312,121.068 257.312,123.568 253.5,125C 258.637,126.238 259.637,128.905 256.5,133C 253.5,133.667 250.5,133.667 247.5,133C 246.193,131.057 246.193,129.223 247.5,127.5C 248.249,126.469 248.915,125.302 249.5,124C 248.221,121.502 248.221,119.002 249.5,116.5C 251.792,116.756 253.959,116.423 256,115.5C 256.464,116.094 256.631,116.761 256.5,117.5 Z M 253.5,119.5 C 253.5,120.833 252.833,121.5 251.5,121.5C 250.475,121.103 250.308,120.437 251,119.5C 251.77,118.402 252.603,118.402 253.5,119.5 Z M 254.5,130.5 C 252.901,130.768 251.568,130.434 250.5,129.5C 250.917,128.876 251.584,128.543 252.5,128.5C 253.713,128.747 254.38,129.414 254.5,130.5 Z"/></g>
<g><path style="opacity:0.035" fill="#323232" d="M 253.5,119.5 C 254.404,120.209 254.737,121.209 254.5,122.5C 253.209,122.737 252.209,122.404 251.5,121.5C 252.833,121.5 253.5,120.833 253.5,119.5 Z"/></g>
<g><path style="opacity:0.22" fill="#4e4e4e" d="M 268.5,118.5 C 268.338,120.527 268.505,122.527 269,124.5C 270.011,125.337 271.178,125.67 272.5,125.5C 272.392,123.486 273.058,121.82 274.5,120.5C 275.167,120.5 275.833,120.5 276.5,120.5C 278.027,120.573 279.027,119.906 279.5,118.5C 280.525,118.897 280.692,119.563 280,120.5C 276.027,120.642 273.86,122.642 273.5,126.5C 272.833,127.167 272.167,127.833 271.5,128.5C 270.895,126.974 269.729,125.974 268,125.5C 267.204,122.961 267.371,120.628 268.5,118.5 Z M 279.5,118.5 C 279.027,119.906 278.027,120.573 276.5,120.5C 276.973,119.094 277.973,118.427 279.5,118.5 Z"/></g>
<g><path style="opacity:0.133" fill="#666666" d="M 321.5,119.5 C 322.29,120.609 322.79,121.942 323,123.5C 323.417,122.244 324.25,121.577 325.5,121.5C 324.559,123.05 323.893,124.716 323.5,126.5C 322.833,126.167 322.167,125.833 321.5,125.5C 321.5,123.5 321.5,121.5 321.5,119.5 Z"/></g>
<g><path style="opacity:0.697" fill="#d5d6d6" d="M 355.5,116.5 C 355.833,116.5 356.167,116.5 356.5,116.5C 356.993,118.806 357.326,121.139 357.5,123.5C 355.167,123.5 352.833,123.5 350.5,123.5C 349.226,124.189 349.226,125.023 350.5,126C 353.063,126.126 355.396,126.293 357.5,126.5C 355.022,129.699 352.022,130.199 348.5,128C 347.748,127.329 347.414,126.496 347.5,125.5C 347.5,123.5 347.5,121.5 347.5,119.5C 349.545,117.016 352.212,116.016 355.5,116.5 Z M 351.5,118.5 C 352.756,118.461 353.756,118.961 354.5,120C 353.167,120.667 351.833,120.667 350.5,120C 351.056,119.617 351.389,119.117 351.5,118.5 Z"/></g>
<g><path style="opacity:0.237" fill="#646565" d="M 185.5,117.5 C 185.833,117.5 186.167,117.5 186.5,117.5C 185.701,120.43 185.368,123.43 185.5,126.5C 184.225,123.604 184.225,120.604 185.5,117.5 Z"/></g>
<g><path style="opacity:0.063" fill="#6b6b6b" d="M 331.5,116.5 C 332.117,116.611 332.617,116.944 333,117.5C 333.333,120.167 333.667,122.833 334,125.5C 334.198,123.618 334.698,121.952 335.5,120.5C 335.325,122.621 335.659,124.621 336.5,126.5C 335.833,127.167 335.167,127.833 334.5,128.5C 332.884,124.704 331.884,120.704 331.5,116.5 Z"/></g>
<g><path style="opacity:0.747" fill="#cfcfcf" d="M 193.5,116.5 C 194.75,116.577 195.583,117.244 196,118.5C 198.024,124.306 196.19,127.973 190.5,129.5C 188.308,129.243 186.641,128.243 185.5,126.5C 185.368,123.43 185.701,120.43 186.5,117.5C 188.764,116.781 191.097,116.448 193.5,116.5 Z M 193.5,121.5 C 193.475,124.179 192.142,125.512 189.5,125.5C 188.378,123.712 188.211,121.712 189,119.5C 189.414,119.043 189.914,118.709 190.5,118.5C 191.735,119.34 192.735,120.34 193.5,121.5 Z"/></g>
<g><path style="opacity:0.253" fill="#464647" d="M 193.5,121.5 C 194.705,122.672 194.705,124.005 193.5,125.5C 192.042,126.782 190.708,126.782 189.5,125.5C 192.142,125.512 193.475,124.179 193.5,121.5 Z"/></g>
<g><path style="opacity:0.263" fill="#7f7f7f" d="M 281.5,116.5 C 282.117,116.611 282.617,116.944 283,117.5C 283.296,120.706 283.796,123.872 284.5,127C 284.43,127.765 284.097,128.265 283.5,128.5C 282.833,124.5 282.167,120.5 281.5,116.5 Z"/></g>
<g><path style="opacity:0.106" fill="#434343" d="M 329.5,123.5 C 331.648,123.389 331.981,124.056 330.5,125.5C 329.042,126.782 327.708,126.782 326.5,125.5C 328.179,125.715 329.179,125.048 329.5,123.5 Z"/></g>
<g><path style="opacity:0.239" fill="#535353" d="M 344.5,116.5 C 345.728,117.306 346.728,118.306 347.5,119.5C 347.5,121.5 347.5,123.5 347.5,125.5C 346.833,126.167 346.167,126.833 345.5,127.5C 345.649,126.448 345.483,125.448 345,124.5C 342.925,126.648 340.592,126.982 338,125.5C 337.22,123.613 337.387,121.946 338.5,120.5C 338.286,122.144 338.62,123.644 339.5,125C 341.851,124.86 344.184,124.36 346.5,123.5C 346.737,122.209 346.404,121.209 345.5,120.5C 345.167,119.167 344.833,117.833 344.5,116.5 Z"/></g>
<g><path style="opacity:0.31" fill="#6e6e6e" d="M 53.5,123.5 C 53.5,125.833 53.5,128.167 53.5,130.5C 54.791,130.263 55.791,130.596 56.5,131.5C 55.1667,131.5 53.8333,131.5 52.5,131.5C 52.1936,128.615 52.5269,125.948 53.5,123.5 Z"/></g>
<g><path style="opacity:0.04" fill="#2b2b2b" d="M 124.5,122.5 C 125.791,123.542 125.791,124.708 124.5,126C 122.613,126.78 120.946,126.613 119.5,125.5C 122.285,126.084 123.952,125.084 124.5,122.5 Z"/></g>
<g><path style="opacity:0.738" fill="#d6d7d6" d="M 272.5,116.5 C 271.817,118.176 270.483,118.843 268.5,118.5C 267.371,120.628 267.204,122.961 268,125.5C 269.729,125.974 270.895,126.974 271.5,128.5C 269.511,129.887 267.678,129.553 266,127.5C 265.819,124.305 265.319,121.305 264.5,118.5C 265.082,117.069 265.915,115.736 267,114.5C 268.401,116.192 270.234,116.859 272.5,116.5 Z"/></g>
<g><path style="opacity:0.026" fill="#2e2e2e" d="M 279.5,123.5 C 280.404,124.209 280.737,125.209 280.5,126.5C 278.901,126.768 277.568,126.434 276.5,125.5C 278.179,125.715 279.179,125.048 279.5,123.5 Z"/></g>
<g><path style="opacity:0.212" fill="#484848" d="M 299.5,124.5 C 297.952,124.821 297.285,125.821 297.5,127.5C 296.566,126.432 296.232,125.099 296.5,123.5C 297.791,123.263 298.791,123.596 299.5,124.5 Z"/></g>
<g><path style="opacity:0.044" fill="#323232" d="M 299.5,124.5 C 301.5,125.833 303.5,125.833 305.5,124.5C 305.03,125.693 304.03,126.36 302.5,126.5C 300.97,126.36 299.97,125.693 299.5,124.5 Z"/></g>
<g><path style="opacity:0.235" fill="#505050" d="M 350.5,123.5 C 352.022,125.819 354.022,126.153 356.5,124.5C 358.418,124.861 358.751,125.528 357.5,126.5C 355.396,126.293 353.063,126.126 350.5,126C 349.226,125.023 349.226,124.189 350.5,123.5 Z"/></g>
<g><path style="opacity:0.051" fill="#323232" d="M 250.5,129.5 C 251.568,130.434 252.901,130.768 254.5,130.5C 252.965,131.788 251.299,131.788 249.5,130.5C 249.624,129.893 249.957,129.56 250.5,129.5 Z"/></g>
</svg>
