<?xml version="1.0" encoding="UTF-8"?>
<!DOCTYPE svg PUBLIC "-//W3C//DTD SVG 1.1//EN" "http://www.w3.org/Graphics/SVG/1.1/DTD/svg11.dtd">
<svg xmlns="http://www.w3.org/2000/svg" version="1.1" width="500px" height="500px" style="shape-rendering:geometricPrecision; text-rendering:geometricPrecision; image-rendering:optimizeQuality; fill-rule:evenodd; clip-rule:evenodd" xmlns:xlink="http://www.w3.org/1999/xlink">
<g><path style="opacity:0.394" fill="#000000ff" d="M 250.5,116.5 C 250.5,116.833 250.5,117.167 250.5,117.5C 234.5,117.5 218.5,117.5 202.5,117.5C 202.181,149.21 202.515,180.877 203.5,212.5C 202.883,212.389 202.383,212.056 202,211.5C 201.5,179.502 201.333,147.502 201.5,115.5C 218.009,115.17 234.342,115.504 250.5,116.5 Z"/></g>
<g><path style="opacity:1" fill="#000000ff" d="M 250.5,117.5 C 257.352,117.975 264.018,119.308 270.5,121.5C 272.181,123.008 274.181,124.008 276.5,124.5C 277.492,124.328 278.158,124.662 278.5,125.5C 284.205,130.204 289.205,135.537 293.5,141.5C 294.338,141.842 294.672,142.508 294.5,143.5C 294.402,145.553 295.069,147.22 296.5,148.5C 297.468,150.607 297.802,152.941 297.5,155.5C 297.667,170.837 297.5,186.17 297,201.5C 295.961,202.244 295.461,203.244 295.5,204.5C 293.457,205.579 292.124,207.246 291.5,209.5C 288.8,211.234 286.8,213.568 285.5,216.5C 283.11,217.891 281.443,219.891 280.5,222.5C 278.413,223.585 277.08,225.251 276.5,227.5C 274.086,228.911 272.419,230.911 271.5,233.5C 267.216,236.752 263.882,240.752 261.5,245.5C 261.167,246.5 260.5,247.167 259.5,247.5C 257.738,248.262 256.738,249.596 256.5,251.5C 256.5,252.167 256.167,252.5 255.5,252.5C 253.086,253.911 251.419,255.911 250.5,258.5C 250.167,259.5 249.5,260.167 248.5,260.5C 246.086,261.911 244.419,263.911 243.5,266.5C 241.413,267.585 240.08,269.251 239.5,271.5C 239.167,272.5 238.5,273.167 237.5,273.5C 235.793,274.873 234.46,276.539 233.5,278.5C 231.413,279.585 230.08,281.251 229.5,283.5C 229.167,284.5 228.5,285.167 227.5,285.5C 226.185,286.476 224.852,287.476 223.5,288.5C 222.482,287.807 221.482,287.141 220.5,286.5C 218.237,281.635 215.237,277.302 211.5,273.5C 211.573,271.973 210.906,270.973 209.5,270.5C 209.262,268.596 208.262,267.262 206.5,266.5C 205.599,265.71 204.932,264.71 204.5,263.5C 203.66,261.147 202.326,259.147 200.5,257.5C 199.567,254.63 197.9,252.296 195.5,250.5C 195.573,248.973 194.906,247.973 193.5,247.5C 192.66,245.147 191.326,243.147 189.5,241.5C 187.237,236.635 184.237,232.302 180.5,228.5C 180.155,225.802 178.822,223.802 176.5,222.5C 176.573,220.973 175.906,219.973 174.5,219.5C 174.573,217.973 173.906,216.973 172.5,216.5C 172.372,214.91 171.705,213.577 170.5,212.5C 169.5,253.161 169.167,293.828 169.5,334.5C 164.167,334.5 158.833,334.5 153.5,334.5C 153.333,276.499 153.5,218.499 154,160.5C 155.039,161.71 156.206,162.71 157.5,163.5C 158.433,166.37 160.1,168.704 162.5,170.5C 162.427,172.027 163.094,173.027 164.5,173.5C 164.427,175.027 165.094,176.027 166.5,176.5C 166.738,178.404 167.738,179.738 169.5,180.5C 170.338,180.842 170.672,181.508 170.5,182.5C 171.026,184.23 172.026,185.564 173.5,186.5C 173.738,188.404 174.738,189.738 176.5,190.5C 176.427,192.027 177.094,193.027 178.5,193.5C 179.34,195.853 180.674,197.853 182.5,199.5C 183.34,201.853 184.674,203.853 186.5,205.5C 187.433,208.37 189.1,210.704 191.5,212.5C 191.427,214.027 192.094,215.027 193.5,215.5C 193.427,217.027 194.094,218.027 195.5,218.5C 195.427,220.027 196.094,221.027 197.5,221.5C 197.427,223.027 198.094,224.027 199.5,224.5C 199.427,226.027 200.094,227.027 201.5,227.5C 201.427,229.027 202.094,230.027 203.5,230.5C 204.433,233.37 206.1,235.704 208.5,237.5C 208.427,239.027 209.094,240.027 210.5,240.5C 210.427,242.027 211.094,243.027 212.5,243.5C 212.427,245.027 213.094,246.027 214.5,246.5C 214.427,248.027 215.094,249.027 216.5,249.5C 218.016,252.533 220.016,255.2 222.5,257.5C 222.511,259.017 223.177,260.184 224.5,261C 225.816,261.528 226.483,261.028 226.5,259.5C 227.5,259.167 228.167,258.5 228.5,257.5C 231.636,254.571 234.303,251.238 236.5,247.5C 238.587,246.415 239.92,244.749 240.5,242.5C 244.536,238.466 248.202,234.132 251.5,229.5C 253.587,228.415 254.92,226.749 255.5,224.5C 256.5,224.167 257.167,223.5 257.5,222.5C 260.871,219.129 263.871,215.463 266.5,211.5C 269.55,209.451 271.883,206.784 273.5,203.5C 275.89,202.109 277.557,200.109 278.5,197.5C 279.117,197.389 279.617,197.056 280,196.5C 280.667,182.5 280.667,168.5 280,154.5C 279.626,152.509 278.793,150.842 277.5,149.5C 276.662,149.158 276.328,148.492 276.5,147.5C 275.811,144.811 274.144,143.144 271.5,142.5C 270.341,140.75 268.674,139.75 266.5,139.5C 265.713,137.896 264.38,137.229 262.5,137.5C 260.786,136.262 258.786,135.595 256.5,135.5C 250.082,135.19 243.749,134.523 237.5,133.5C 231.167,133.5 224.833,133.5 218.5,133.5C 218.667,166.502 218.5,199.502 218,232.5C 217.617,231.944 217.117,231.611 216.5,231.5C 215.567,228.63 213.9,226.296 211.5,224.5C 210.241,220.975 208.241,217.975 205.5,215.5C 205.573,213.973 204.906,212.973 203.5,212.5C 202.515,180.877 202.181,149.21 202.5,117.5C 218.5,117.5 234.5,117.5 250.5,117.5 Z"/></g>
<g><path style="opacity:0.188" fill="#000000ff" d="M 250.5,117.5 C 250.5,117.167 250.5,116.833 250.5,116.5C 257.721,116.406 264.387,118.072 270.5,121.5C 264.018,119.308 257.352,117.975 250.5,117.5 Z"/></g>
<g><path style="opacity:0.145" fill="#000000ff" d="M 270.5,121.5 C 273.313,121.025 275.313,122.025 276.5,124.5C 274.181,124.008 272.181,123.008 270.5,121.5 Z"/></g>
<g><path style="opacity:0.216" fill="#000000ff" d="M 278.5,125.5 C 283.349,127.836 287.516,131.169 291,135.5C 292.559,137.217 293.392,139.217 293.5,141.5C 289.205,135.537 284.205,130.204 278.5,125.5 Z"/></g>
<g><path style="opacity:0.016" fill="#000000ff" d="M 256.5,135.5 C 258.786,135.595 260.786,136.262 262.5,137.5C 260.102,137.741 258.102,137.074 256.5,135.5 Z"/></g>
<g><path style="opacity:0.161" fill="#000000ff" d="M 262.5,137.5 C 264.38,137.229 265.713,137.896 266.5,139.5C 264.847,139.34 263.514,138.674 262.5,137.5 Z"/></g>
<g><path style="opacity:0.043" fill="#000000ff" d="M 266.5,139.5 C 268.674,139.75 270.341,140.75 271.5,142.5C 269.326,142.25 267.659,141.25 266.5,139.5 Z"/></g>
<g><path style="opacity:0.592" fill="#000000ff" d="M 271.5,142.5 C 274.144,143.144 275.811,144.811 276.5,147.5C 274.548,146.215 272.882,144.549 271.5,142.5 Z"/></g>
<g><path style="opacity:0.043" fill="#000000ff" d="M 294.5,143.5 C 295.931,144.78 296.598,146.447 296.5,148.5C 295.069,147.22 294.402,145.553 294.5,143.5 Z"/></g>
<g><path style="opacity:0.011" fill="#000000ff" d="M 154.5,159.5 C 153.883,159.389 153.383,159.056 153,158.5C 152.5,170.829 152.333,183.162 152.5,195.5C 151.505,183.011 151.171,170.344 151.5,157.5C 153.179,157.285 154.179,157.952 154.5,159.5 Z"/></g>
<g><path style="opacity:0.106" fill="#000000ff" d="M 157.5,163.5 C 159.9,165.296 161.567,167.63 162.5,170.5C 160.1,168.704 158.433,166.37 157.5,163.5 Z"/></g>
<g><path style="opacity:0.086" fill="#000000ff" d="M 277.5,149.5 C 278.793,150.842 279.626,152.509 280,154.5C 280.667,168.5 280.667,182.5 280,196.5C 279.617,197.056 279.117,197.389 278.5,197.5C 280.06,181.46 279.727,165.46 277.5,149.5 Z"/></g>
<g><path style="opacity:1" fill="#000000ff" d="M 345.5,334.5 C 340.5,334.5 335.5,334.5 330.5,334.5C 330.833,291.828 330.5,249.161 329.5,206.5C 328.893,206.624 328.56,206.957 328.5,207.5C 327.599,208.29 326.932,209.29 326.5,210.5C 324.738,211.262 323.738,212.596 323.5,214.5C 323.167,215.5 322.5,216.167 321.5,216.5C 319.833,217.5 318.5,218.833 317.5,220.5C 316.883,220.389 316.383,220.056 316,219.5C 315.648,221.247 315.148,222.914 314.5,224.5C 312.413,225.585 311.08,227.251 310.5,229.5C 310.5,230.167 310.167,230.5 309.5,230.5C 308.167,231.5 306.833,232.5 305.5,233.5C 304.504,233.414 303.671,233.748 303,234.5C 302.648,236.247 302.148,237.914 301.5,239.5C 299.738,240.262 298.738,241.596 298.5,243.5C 298.5,244.167 298.167,244.5 297.5,244.5C 294.792,246.266 292.792,248.599 291.5,251.5C 289.086,252.911 287.419,254.911 286.5,257.5C 286.5,258.167 286.167,258.5 285.5,258.5C 284.5,258.833 283.833,259.5 283.5,260.5C 281.738,261.262 280.738,262.596 280.5,264.5C 279.5,264.833 278.833,265.5 278.5,266.5C 277.5,266.833 276.833,267.5 276.5,268.5C 275.094,268.973 274.427,269.973 274.5,271.5C 273.833,272.833 272.833,273.833 271.5,274.5C 269.738,275.262 268.738,276.596 268.5,278.5C 268.167,279.5 267.5,280.167 266.5,280.5C 264.413,281.585 263.08,283.251 262.5,285.5C 262.5,286.167 262.167,286.5 261.5,286.5C 260.167,287.167 259.167,288.167 258.5,289.5C 257.094,289.973 256.427,290.973 256.5,292.5C 256.5,293.167 256.167,293.5 255.5,293.5C 254.5,293.833 253.833,294.5 253.5,295.5C 251.738,296.262 250.738,297.596 250.5,299.5C 249.833,300.833 248.833,301.833 247.5,302.5C 245.738,303.262 244.738,304.596 244.5,306.5C 244.167,307.5 243.5,308.167 242.5,308.5C 239.45,310.549 237.117,313.216 235.5,316.5C 234.833,316.833 234.167,317.167 233.5,317.5C 232.069,317.881 231.236,318.881 231,320.5C 230.667,320.167 230.333,319.833 230,319.5C 229.51,320.793 229.343,322.127 229.5,323.5C 227.413,324.585 226.08,326.251 225.5,328.5C 225.5,329.167 225.167,329.5 224.5,329.5C 223.5,329.833 222.833,330.5 222.5,331.5C 221.094,331.973 220.427,332.973 220.5,334.5C 219.172,339.288 218.505,344.454 218.5,350C 218.501,355.344 218.834,360.511 219.5,365.5C 230.172,365.667 240.839,365.5 251.5,365C 252.737,364.768 253.737,364.268 254.5,363.5C 256.553,363.598 258.22,362.931 259.5,361.5C 262.089,361.539 264.089,360.539 265.5,358.5C 265.842,357.662 266.508,357.328 267.5,357.5C 271.5,355.5 274.5,352.5 276.5,348.5C 277.512,345.743 278.512,343.076 279.5,340.5C 280.332,320.337 280.832,300.004 281,279.5C 282.669,278.154 283.836,276.487 284.5,274.5C 287.243,272.761 289.243,270.427 290.5,267.5C 292.914,266.089 294.581,264.089 295.5,261.5C 296.117,261.389 296.617,261.056 297,260.5C 297.5,286.831 297.667,313.165 297.5,339.5C 296.566,342.656 295.899,345.989 295.5,349.5C 293.659,351.849 292.326,354.515 291.5,357.5C 289.122,359.878 287.122,362.545 285.5,365.5C 285.167,366.5 284.5,367.167 283.5,367.5C 281.938,367.733 280.605,368.4 279.5,369.5C 278.5,369.5 277.5,369.5 276.5,369.5C 276.5,370.5 276.5,371.5 276.5,372.5C 275.29,372.932 274.29,373.599 273.5,374.5C 270.515,375.326 267.849,376.659 265.5,378.5C 260.218,379.756 254.885,380.756 249.5,381.5C 233.833,381.5 218.167,381.5 202.5,381.5C 202.333,363.497 202.5,345.497 203,327.5C 204.045,326.627 204.878,325.627 205.5,324.5C 206.906,324.027 207.573,323.027 207.5,321.5C 208.5,321.167 209.167,320.5 209.5,319.5C 213.203,315.798 216.537,311.798 219.5,307.5C 222.573,305.431 224.906,302.764 226.5,299.5C 227.5,299.167 228.167,298.5 228.5,297.5C 230.587,296.415 231.92,294.749 232.5,292.5C 237.445,288.587 241.445,283.92 244.5,278.5C 245.5,278.167 246.167,277.5 246.5,276.5C 248.914,275.089 250.581,273.089 251.5,270.5C 254.219,268.781 256.219,266.447 257.5,263.5C 258.5,263.167 259.167,262.5 259.5,261.5C 265.578,255.758 270.912,249.425 275.5,242.5C 278.55,240.451 280.883,237.784 282.5,234.5C 285.219,232.781 287.219,230.447 288.5,227.5C 291.219,225.781 293.219,223.447 294.5,220.5C 297.243,218.761 299.243,216.427 300.5,213.5C 309.541,204.402 317.874,194.735 325.5,184.5C 327.914,183.089 329.581,181.089 330.5,178.5C 331.5,178.167 332.167,177.5 332.5,176.5C 334.587,175.415 335.92,173.749 336.5,171.5C 339.832,169 342.666,166 345,162.5C 345.5,219.832 345.667,277.166 345.5,334.5 Z"/></g>
<g><path style="opacity:0.459" fill="#000000ff" d="M 346.5,162.5 C 346.832,220.002 346.499,277.336 345.5,334.5C 345.667,277.166 345.5,219.832 345,162.5C 342.666,166 339.832,169 336.5,171.5C 338.927,167.895 341.593,164.395 344.5,161C 346.948,160.147 347.614,160.647 346.5,162.5 Z"/></g>
<g><path style="opacity:0.11" fill="#000000ff" d="M 297.5,155.5 C 298.661,170.995 298.828,186.661 298,202.5C 297.292,203.381 296.458,204.047 295.5,204.5C 295.461,203.244 295.961,202.244 297,201.5C 297.5,186.17 297.667,170.837 297.5,155.5 Z"/></g>
<g><path style="opacity:0.208" fill="#000000ff" d="M 162.5,170.5 C 163.906,170.973 164.573,171.973 164.5,173.5C 163.094,173.027 162.427,172.027 162.5,170.5 Z"/></g>
<g><path style="opacity:0.459" fill="#000000ff" d="M 336.5,171.5 C 335.92,173.749 334.587,175.415 332.5,176.5C 333.08,174.251 334.413,172.585 336.5,171.5 Z"/></g>
<g><path style="opacity:0.255" fill="#000000ff" d="M 164.5,173.5 C 165.906,173.973 166.573,174.973 166.5,176.5C 165.094,176.027 164.427,175.027 164.5,173.5 Z"/></g>
<g><path style="opacity:0.161" fill="#000000ff" d="M 332.5,176.5 C 332.167,177.5 331.5,178.167 330.5,178.5C 330.5,177.167 331.167,176.5 332.5,176.5 Z"/></g>
<g><path style="opacity:0.392" fill="#000000ff" d="M 166.5,176.5 C 168.262,177.262 169.262,178.596 169.5,180.5C 167.738,179.738 166.738,178.404 166.5,176.5 Z"/></g>
<g><path style="opacity:0.004" fill="#000000ff" d="M 170.5,182.5 C 172.446,183.035 173.446,184.368 173.5,186.5C 172.026,185.564 171.026,184.23 170.5,182.5 Z"/></g>
<g><path style="opacity:0.184" fill="#000000ff" d="M 330.5,178.5 C 329.581,181.089 327.914,183.089 325.5,184.5C 326.419,181.911 328.086,179.911 330.5,178.5 Z"/></g>
<g><path style="opacity:0.235" fill="#000000ff" d="M 173.5,186.5 C 175.262,187.262 176.262,188.596 176.5,190.5C 174.738,189.738 173.738,188.404 173.5,186.5 Z"/></g>
<g><path style="opacity:0.267" fill="#000000ff" d="M 237.5,133.5 C 231.69,134.49 225.69,134.823 219.5,134.5C 219.833,167.84 219.5,201.173 218.5,234.5C 217.081,233.995 216.415,232.995 216.5,231.5C 217.117,231.611 217.617,231.944 218,232.5C 218.5,199.502 218.667,166.502 218.5,133.5C 224.833,133.5 231.167,133.5 237.5,133.5 Z"/></g>
<g><path style="opacity:0.169" fill="#000000ff" d="M 176.5,190.5 C 177.906,190.973 178.573,191.973 178.5,193.5C 177.094,193.027 176.427,192.027 176.5,190.5 Z"/></g>
<g><path style="opacity:0.024" fill="#000000ff" d="M 178.5,193.5 C 180.822,194.802 182.155,196.802 182.5,199.5C 180.674,197.853 179.34,195.853 178.5,193.5 Z"/></g>
<g><path style="opacity:0.447" fill="#000000ff" d="M 278.5,197.5 C 277.557,200.109 275.89,202.109 273.5,203.5C 274.473,200.865 276.14,198.865 278.5,197.5 Z"/></g>
<g><path style="opacity:0.059" fill="#000000ff" d="M 182.5,199.5 C 184.822,200.802 186.155,202.802 186.5,205.5C 184.674,203.853 183.34,201.853 182.5,199.5 Z"/></g>
<g><path style="opacity:0.408" fill="#000000ff" d="M 325.5,184.5 C 317.874,194.735 309.541,204.402 300.5,213.5C 308.126,203.265 316.459,193.598 325.5,184.5 Z"/></g>
<g><path style="opacity:0.012" fill="#000000ff" d="M 295.5,204.5 C 294.864,206.795 293.531,208.461 291.5,209.5C 292.124,207.246 293.457,205.579 295.5,204.5 Z"/></g>
<g><path style="opacity:0.365" fill="#000000ff" d="M 273.5,203.5 C 271.883,206.784 269.55,209.451 266.5,211.5C 268.146,208.19 270.48,205.523 273.5,203.5 Z"/></g>
<g><path style="opacity:0.114" fill="#000000ff" d="M 186.5,205.5 C 188.9,207.296 190.567,209.63 191.5,212.5C 189.1,210.704 187.433,208.37 186.5,205.5 Z"/></g>
<g><path style="opacity:0.004" fill="#000000ff" d="M 326.5,210.5 C 326.262,212.404 325.262,213.738 323.5,214.5C 323.738,212.596 324.738,211.262 326.5,210.5 Z"/></g>
<g><path style="opacity:0.051" fill="#000000ff" d="M 203.5,212.5 C 204.906,212.973 205.573,213.973 205.5,215.5C 204.094,215.027 203.427,214.027 203.5,212.5 Z"/></g>
<g><path style="opacity:0.137" fill="#000000ff" d="M 191.5,212.5 C 192.906,212.973 193.573,213.973 193.5,215.5C 192.094,215.027 191.427,214.027 191.5,212.5 Z"/></g>
<g><path style="opacity:0.322" fill="#000000ff" d="M 266.5,211.5 C 263.871,215.463 260.871,219.129 257.5,222.5C 259.372,217.957 262.372,214.29 266.5,211.5 Z"/></g>
<g><path style="opacity:0.004" fill="#000000ff" d="M 291.5,209.5 C 290.588,211.595 289.421,213.595 288,215.5C 287.329,216.252 286.496,216.586 285.5,216.5C 286.8,213.568 288.8,211.234 291.5,209.5 Z"/></g>
<g><path style="opacity:0.49" fill="#000000ff" d="M 300.5,213.5 C 299.243,216.427 297.243,218.761 294.5,220.5C 295.757,217.573 297.757,215.239 300.5,213.5 Z"/></g>
<g><path style="opacity:0.012" fill="#000000ff" d="M 172.5,216.5 C 173.906,216.973 174.573,217.973 174.5,219.5C 173.094,219.027 172.427,218.027 172.5,216.5 Z"/></g>
<g><path style="opacity:0.137" fill="#000000ff" d="M 193.5,215.5 C 194.906,215.973 195.573,216.973 195.5,218.5C 194.094,218.027 193.427,217.027 193.5,215.5 Z"/></g>
<g><path style="opacity:0.016" fill="#000000ff" d="M 285.5,216.5 C 284.527,219.135 282.86,221.135 280.5,222.5C 281.443,219.891 283.11,217.891 285.5,216.5 Z"/></g>
<g><path style="opacity:0.004" fill="#000000ff" d="M 205.5,215.5 C 208.241,217.975 210.241,220.975 211.5,224.5C 208.723,222.049 206.723,219.049 205.5,215.5 Z"/></g>
<g><path style="opacity:0.008" fill="#000000ff" d="M 321.5,216.5 C 320.92,218.749 319.587,220.415 317.5,221.5C 317.5,221.167 317.5,220.833 317.5,220.5C 318.5,218.833 319.833,217.5 321.5,216.5 Z"/></g>
<g><path style="opacity:0.012" fill="#000000ff" d="M 174.5,219.5 C 175.906,219.973 176.573,220.973 176.5,222.5C 175.094,222.027 174.427,221.027 174.5,219.5 Z"/></g>
<g><path style="opacity:0.192" fill="#000000ff" d="M 195.5,218.5 C 196.906,218.973 197.573,219.973 197.5,221.5C 196.094,221.027 195.427,220.027 195.5,218.5 Z"/></g>
<g><path style="opacity:0.973" fill="#000000ff" d="M 317.5,220.5 C 317.5,220.833 317.5,221.167 317.5,221.5C 317.144,223.19 316.144,224.19 314.5,224.5C 315.148,222.914 315.648,221.247 316,219.5C 316.383,220.056 316.883,220.389 317.5,220.5 Z"/></g>
<g><path style="opacity:0.153" fill="#000000ff" d="M 197.5,221.5 C 198.906,221.973 199.573,222.973 199.5,224.5C 198.094,224.027 197.427,223.027 197.5,221.5 Z"/></g>
<g><path style="opacity:0.133" fill="#000000ff" d="M 257.5,222.5 C 257.167,223.5 256.5,224.167 255.5,224.5C 255.5,223.167 256.167,222.5 257.5,222.5 Z"/></g>
<g><path style="opacity:0.455" fill="#000000ff" d="M 294.5,220.5 C 293.219,223.447 291.219,225.781 288.5,227.5C 289.81,224.527 291.81,222.193 294.5,220.5 Z"/></g>
<g><path style="opacity:0.059" fill="#000000ff" d="M 280.5,222.5 C 279.92,224.749 278.587,226.415 276.5,227.5C 277.08,225.251 278.413,223.585 280.5,222.5 Z"/></g>
<g><path style="opacity:0.255" fill="#000000ff" d="M 176.5,222.5 C 178.822,223.802 180.155,225.802 180.5,228.5C 178.674,226.853 177.34,224.853 176.5,222.5 Z"/></g>
<g><path style="opacity:0.216" fill="#000000ff" d="M 199.5,224.5 C 200.906,224.973 201.573,225.973 201.5,227.5C 200.094,227.027 199.427,226.027 199.5,224.5 Z"/></g>
<g><path style="opacity:0.008" fill="#000000ff" d="M 314.5,224.5 C 313.92,226.749 312.587,228.415 310.5,229.5C 311.08,227.251 312.413,225.585 314.5,224.5 Z"/></g>
<g><path style="opacity:0.298" fill="#000000ff" d="M 255.5,224.5 C 254.92,226.749 253.587,228.415 251.5,229.5C 252.08,227.251 253.413,225.585 255.5,224.5 Z"/></g>
<g><path style="opacity:0.004" fill="#000000ff" d="M 211.5,224.5 C 213.9,226.296 215.567,228.63 216.5,231.5C 214.1,229.704 212.433,227.37 211.5,224.5 Z"/></g>
<g><path style="opacity:0.012" fill="#000000ff" d="M 180.5,228.5 C 184.237,232.302 187.237,236.635 189.5,241.5C 185.338,237.999 182.338,233.665 180.5,228.5 Z"/></g>
<g><path style="opacity:0.216" fill="#000000ff" d="M 201.5,227.5 C 202.906,227.973 203.573,228.973 203.5,230.5C 202.094,230.027 201.427,229.027 201.5,227.5 Z"/></g>
<g><path style="opacity:0.004" fill="#000000ff" d="M 276.5,227.5 C 275.581,230.089 273.914,232.089 271.5,233.5C 272.419,230.911 274.086,228.911 276.5,227.5 Z"/></g>
<g><path style="opacity:0.388" fill="#000000ff" d="M 288.5,227.5 C 287.219,230.447 285.219,232.781 282.5,234.5C 283.81,231.527 285.81,229.193 288.5,227.5 Z"/></g>
<g><path style="opacity:0.008" fill="#000000ff" d="M 309.5,230.5 C 308.92,232.749 307.587,234.415 305.5,235.5C 305.5,234.833 305.5,234.167 305.5,233.5C 306.833,232.5 308.167,231.5 309.5,230.5 Z"/></g>
<g><path style="opacity:0.086" fill="#000000ff" d="M 203.5,230.5 C 205.9,232.296 207.567,234.63 208.5,237.5C 206.1,235.704 204.433,233.37 203.5,230.5 Z"/></g>
<g><path style="opacity:0.985" fill="#000000ff" d="M 305.5,233.5 C 305.5,234.167 305.5,234.833 305.5,235.5C 304.598,237.341 303.264,238.674 301.5,239.5C 302.148,237.914 302.648,236.247 303,234.5C 303.671,233.748 304.504,233.414 305.5,233.5 Z"/></g>
<g><path style="opacity:0.09" fill="#000000ff" d="M 251.5,229.5 C 248.202,234.132 244.536,238.466 240.5,242.5C 243.046,237.281 246.713,232.948 251.5,229.5 Z"/></g>
<g><path style="opacity:0.475" fill="#000000ff" d="M 282.5,234.5 C 280.883,237.784 278.55,240.451 275.5,242.5C 277.146,239.19 279.48,236.523 282.5,234.5 Z"/></g>
<g><path style="opacity:0.157" fill="#000000ff" d="M 208.5,237.5 C 209.906,237.973 210.573,238.973 210.5,240.5C 209.094,240.027 208.427,239.027 208.5,237.5 Z"/></g>
<g><path style="opacity:0.004" fill="#000000ff" d="M 301.5,239.5 C 301.262,241.404 300.262,242.738 298.5,243.5C 298.738,241.596 299.738,240.262 301.5,239.5 Z"/></g>
<g><path style="opacity:0.22" fill="#000000ff" d="M 210.5,240.5 C 211.906,240.973 212.573,241.973 212.5,243.5C 211.094,243.027 210.427,242.027 210.5,240.5 Z"/></g>
<g><path style="opacity:0.031" fill="#000000ff" d="M 189.5,241.5 C 191.326,243.147 192.66,245.147 193.5,247.5C 191.178,246.198 189.845,244.198 189.5,241.5 Z"/></g>
<g><path style="opacity:0.02" fill="#000000ff" d="M 271.5,233.5 C 268.641,237.878 265.308,241.878 261.5,245.5C 263.882,240.752 267.216,236.752 271.5,233.5 Z"/></g>
<g><path style="opacity:0.494" fill="#000000ff" d="M 240.5,242.5 C 239.92,244.749 238.587,246.415 236.5,247.5C 237.08,245.251 238.413,243.585 240.5,242.5 Z"/></g>
<g><path style="opacity:0.267" fill="#000000ff" d="M 212.5,243.5 C 213.906,243.973 214.573,244.973 214.5,246.5C 213.094,246.027 212.427,245.027 212.5,243.5 Z"/></g>
<g><path style="opacity:0.271" fill="#000000ff" d="M 275.5,242.5 C 270.912,249.425 265.578,255.758 259.5,261.5C 260.412,259.405 261.579,257.405 263,255.5C 266.722,250.708 270.889,246.375 275.5,242.5 Z"/></g>
<g><path style="opacity:0.008" fill="#000000ff" d="M 297.5,244.5 C 296.213,247.453 294.213,249.786 291.5,251.5C 292.792,248.599 294.792,246.266 297.5,244.5 Z"/></g>
<g><path style="opacity:0.008" fill="#000000ff" d="M 193.5,247.5 C 194.906,247.973 195.573,248.973 195.5,250.5C 194.094,250.027 193.427,249.027 193.5,247.5 Z"/></g>
<g><path style="opacity:0.314" fill="#000000ff" d="M 214.5,246.5 C 215.906,246.973 216.573,247.973 216.5,249.5C 215.094,249.027 214.427,248.027 214.5,246.5 Z"/></g>
<g><path style="opacity:0.012" fill="#000000ff" d="M 259.5,247.5 C 259.262,249.404 258.262,250.738 256.5,251.5C 256.738,249.596 257.738,248.262 259.5,247.5 Z"/></g>
<g><path style="opacity:0.471" fill="#000000ff" d="M 236.5,247.5 C 234.303,251.238 231.636,254.571 228.5,257.5C 230.228,253.357 232.894,250.024 236.5,247.5 Z"/></g>
<g><path style="opacity:0.129" fill="#000000ff" d="M 195.5,250.5 C 197.9,252.296 199.567,254.63 200.5,257.5C 198.123,255.772 196.456,253.439 195.5,250.5 Z"/></g>
<g><path style="opacity:0.141" fill="#000000ff" d="M 216.5,249.5 C 219.471,251.443 221.471,254.109 222.5,257.5C 220.016,255.2 218.016,252.533 216.5,249.5 Z"/></g>
<g><path style="opacity:0.024" fill="#000000ff" d="M 291.5,251.5 C 290.581,254.089 288.914,256.089 286.5,257.5C 287.419,254.911 289.086,252.911 291.5,251.5 Z"/></g>
<g><path style="opacity:0.012" fill="#000000ff" d="M 255.5,252.5 C 254.581,255.089 252.914,257.089 250.5,258.5C 251.419,255.911 253.086,253.911 255.5,252.5 Z"/></g>
<g><path style="opacity:0.149" fill="#000000ff" d="M 228.5,257.5 C 228.167,258.5 227.5,259.167 226.5,259.5C 226.5,258.167 227.167,257.5 228.5,257.5 Z"/></g>
<g><path style="opacity:0.027" fill="#000000ff" d="M 222.5,257.5 C 223.605,258.6 224.938,259.267 226.5,259.5C 226.483,261.028 225.816,261.528 224.5,261C 223.177,260.184 222.511,259.017 222.5,257.5 Z"/></g>
<g><path style="opacity:0.004" fill="#000000ff" d="M 285.5,258.5 C 285.5,259.833 284.833,260.5 283.5,260.5C 283.833,259.5 284.5,258.833 285.5,258.5 Z"/></g>
<g><path style="opacity:0.141" fill="#000000ff" d="M 200.5,257.5 C 202.326,259.147 203.66,261.147 204.5,263.5C 202.178,262.198 200.845,260.198 200.5,257.5 Z"/></g>
<g><path style="opacity:0.22" fill="#000000ff" d="M 259.5,261.5 C 259.167,262.5 258.5,263.167 257.5,263.5C 257.5,262.167 258.167,261.5 259.5,261.5 Z"/></g>
<g><path style="opacity:0.035" fill="#000000ff" d="M 283.5,260.5 C 283.262,262.404 282.262,263.738 280.5,264.5C 280.738,262.596 281.738,261.262 283.5,260.5 Z"/></g>
<g><path style="opacity:0.059" fill="#000000ff" d="M 248.5,260.5 C 247.581,263.089 245.914,265.089 243.5,266.5C 244.419,263.911 246.086,261.911 248.5,260.5 Z"/></g>
<g><path style="opacity:0.099" fill="#000000ff" d="M 346.5,162.5 C 347.499,219.998 347.832,277.664 347.5,335.5C 341.167,335.5 334.833,335.5 328.5,335.5C 329.161,293.487 328.494,251.82 326.5,210.5C 326.932,209.29 327.599,208.29 328.5,207.5C 329.167,249.833 329.833,292.167 330.5,334.5C 335.5,334.5 340.5,334.5 345.5,334.5C 346.499,277.336 346.832,220.002 346.5,162.5 Z"/></g>
<g><path style="opacity:0.004" fill="#000000ff" d="M 280.5,264.5 C 280.5,265.833 279.833,266.5 278.5,266.5C 278.833,265.5 279.5,264.833 280.5,264.5 Z"/></g>
<g><path style="opacity:0.443" fill="#000000ff" d="M 257.5,263.5 C 256.219,266.447 254.219,268.781 251.5,270.5C 252.81,267.527 254.81,265.193 257.5,263.5 Z"/></g>
<g><path style="opacity:0.208" fill="#000000ff" d="M 295.5,261.5 C 294.581,264.089 292.914,266.089 290.5,267.5C 291.419,264.911 293.086,262.911 295.5,261.5 Z"/></g>
<g><path style="opacity:0.004" fill="#000000ff" d="M 206.5,266.5 C 208.262,267.262 209.262,268.596 209.5,270.5C 207.738,269.738 206.738,268.404 206.5,266.5 Z"/></g>
<g><path style="opacity:0.012" fill="#000000ff" d="M 278.5,266.5 C 278.5,267.833 277.833,268.5 276.5,268.5C 276.833,267.5 277.5,266.833 278.5,266.5 Z"/></g>
<g><path style="opacity:0.008" fill="#000000ff" d="M 243.5,266.5 C 242.92,268.749 241.587,270.415 239.5,271.5C 240.08,269.251 241.413,267.585 243.5,266.5 Z"/></g>
<g><path style="opacity:0.035" fill="#000000ff" d="M 276.5,268.5 C 276.573,270.027 275.906,271.027 274.5,271.5C 274.427,269.973 275.094,268.973 276.5,268.5 Z"/></g>
<g><path style="opacity:0.478" fill="#000000ff" d="M 290.5,267.5 C 289.243,270.427 287.243,272.761 284.5,274.5C 285.757,271.573 287.757,269.239 290.5,267.5 Z"/></g>
<g><path style="opacity:0.744" fill="#000000ff" d="M 328.5,207.5 C 328.56,206.957 328.893,206.624 329.5,206.5C 330.5,249.161 330.833,291.828 330.5,334.5C 329.833,292.167 329.167,249.833 328.5,207.5 Z"/></g>
<g><path style="opacity:0.047" fill="#000000ff" d="M 209.5,270.5 C 210.906,270.973 211.573,271.973 211.5,273.5C 210.094,273.027 209.427,272.027 209.5,270.5 Z"/></g>
<g><path style="opacity:0.4" fill="#000000ff" d="M 251.5,270.5 C 250.581,273.089 248.914,275.089 246.5,276.5C 247.419,273.911 249.086,271.911 251.5,270.5 Z"/></g>
<g><path style="opacity:0.022" fill="#000000ff" d="M 237.5,273.5 C 237.269,276.063 235.935,277.73 233.5,278.5C 234.46,276.539 235.793,274.873 237.5,273.5 Z"/></g>
<g><path style="opacity:0.357" fill="#000000ff" d="M 154.5,159.5 C 156.262,160.262 157.262,161.596 157.5,163.5C 156.206,162.71 155.039,161.71 154,160.5C 153.5,218.499 153.333,276.499 153.5,334.5C 152.505,322.011 152.171,309.344 152.5,296.5C 152.358,262.951 152.358,229.284 152.5,195.5C 152.333,183.162 152.5,170.829 153,158.5C 153.383,159.056 153.883,159.389 154.5,159.5 Z"/></g>
<g><path style="opacity:0.031" fill="#000000ff" d="M 271.5,274.5 C 271.262,276.404 270.262,277.738 268.5,278.5C 268.738,276.596 269.738,275.262 271.5,274.5 Z"/></g>
<g><path style="opacity:0.118" fill="#000000ff" d="M 246.5,276.5 C 246.167,277.5 245.5,278.167 244.5,278.5C 244.5,277.167 245.167,276.5 246.5,276.5 Z"/></g>
<g><path style="opacity:0.004" fill="#000000ff" d="M 233.5,278.5 C 232.92,280.749 231.587,282.415 229.5,283.5C 230.08,281.251 231.413,279.585 233.5,278.5 Z"/></g>
<g><path style="opacity:0.4" fill="#000000ff" d="M 244.5,278.5 C 241.445,283.92 237.445,288.587 232.5,292.5C 236.029,287.452 240.029,282.785 244.5,278.5 Z"/></g>
<g><path style="opacity:0.203" fill="#000000ff" d="M 172.5,216.5 C 170.506,255.819 169.839,295.486 170.5,335.5C 164.167,335.5 157.833,335.5 151.5,335.5C 151.171,322.323 151.505,309.323 152.5,296.5C 152.171,309.344 152.505,322.011 153.5,334.5C 158.833,334.5 164.167,334.5 169.5,334.5C 169.167,293.828 169.5,253.161 170.5,212.5C 171.705,213.577 172.372,214.91 172.5,216.5 Z"/></g>
<g><path style="opacity:0.012" fill="#000000ff" d="M 266.5,280.5 C 265.92,282.749 264.587,284.415 262.5,285.5C 263.08,283.251 264.413,281.585 266.5,280.5 Z"/></g>
<g><path style="opacity:0.008" fill="#000000ff" d="M 211.5,273.5 C 215.237,277.302 218.237,281.635 220.5,286.5C 216.763,282.698 213.763,278.365 211.5,273.5 Z"/></g>
<g><path style="opacity:0.031" fill="#000000ff" d="M 227.5,285.5 C 226.945,287.729 225.611,289.395 223.5,290.5C 221.712,289.717 220.712,288.384 220.5,286.5C 221.482,287.141 222.482,287.807 223.5,288.5C 224.852,287.476 226.185,286.476 227.5,285.5 Z"/></g>
<g><path style="opacity:0.012" fill="#000000ff" d="M 261.5,286.5 C 261.5,288.5 260.5,289.5 258.5,289.5C 259.167,288.167 260.167,287.167 261.5,286.5 Z"/></g>
<g><path style="opacity:0.035" fill="#000000ff" d="M 258.5,289.5 C 258.573,291.027 257.906,292.027 256.5,292.5C 256.427,290.973 257.094,289.973 258.5,289.5 Z"/></g>
<g><path style="opacity:0.004" fill="#000000ff" d="M 255.5,293.5 C 255.5,294.833 254.833,295.5 253.5,295.5C 253.833,294.5 254.5,293.833 255.5,293.5 Z"/></g>
<g><path style="opacity:0.42" fill="#000000ff" d="M 232.5,292.5 C 231.92,294.749 230.587,296.415 228.5,297.5C 229.08,295.251 230.413,293.585 232.5,292.5 Z"/></g>
<g><path style="opacity:0.012" fill="#000000ff" d="M 253.5,295.5 C 253.262,297.404 252.262,298.738 250.5,299.5C 250.738,297.596 251.738,296.262 253.5,295.5 Z"/></g>
<g><path style="opacity:0.173" fill="#000000ff" d="M 228.5,297.5 C 228.167,298.5 227.5,299.167 226.5,299.5C 226.5,298.167 227.167,297.5 228.5,297.5 Z"/></g>
<g><path style="opacity:0.439" fill="#000000ff" d="M 226.5,299.5 C 224.906,302.764 222.573,305.431 219.5,307.5C 221.094,304.236 223.427,301.569 226.5,299.5 Z"/></g>
<g><path style="opacity:0.012" fill="#000000ff" d="M 247.5,302.5 C 247.262,304.404 246.262,305.738 244.5,306.5C 244.738,304.596 245.738,303.262 247.5,302.5 Z"/></g>
<g><path style="opacity:0.054" fill="#000000ff" d="M 284.5,274.5 C 283.836,276.487 282.669,278.154 281,279.5C 280.832,300.004 280.332,320.337 279.5,340.5C 279.333,319.831 279.5,299.164 280,278.5C 281.307,276.808 282.807,275.475 284.5,274.5 Z"/></g>
<g><path style="opacity:0.078" fill="#000000ff" d="M 297.5,339.5 C 297.667,313.165 297.5,286.831 297,260.5C 296.617,261.056 296.117,261.389 295.5,261.5C 295.821,259.952 296.821,259.285 298.5,259.5C 298.831,286.339 298.498,313.005 297.5,339.5 Z"/></g>
<g><path style="opacity:0.38" fill="#000000ff" d="M 219.5,307.5 C 216.537,311.798 213.203,315.798 209.5,319.5C 211.709,314.619 215.043,310.619 219.5,307.5 Z"/></g>
<g><path style="opacity:0.016" fill="#000000ff" d="M 242.5,308.5 C 240.854,311.81 238.52,314.477 235.5,316.5C 237.117,313.216 239.45,310.549 242.5,308.5 Z"/></g>
<g><path style="opacity:0.008" fill="#000000ff" d="M 235.5,316.5 C 235.262,318.404 234.262,319.738 232.5,320.5C 232.557,319.391 232.89,318.391 233.5,317.5C 234.167,317.167 234.833,316.833 235.5,316.5 Z"/></g>
<g><path style="opacity:0.996" fill="#000000ff" d="M 233.5,317.5 C 232.89,318.391 232.557,319.391 232.5,320.5C 231.833,321.833 230.833,322.833 229.5,323.5C 229.343,322.127 229.51,320.793 230,319.5C 230.333,319.833 230.667,320.167 231,320.5C 231.236,318.881 232.069,317.881 233.5,317.5 Z"/></g>
<g><path style="opacity:0.173" fill="#000000ff" d="M 209.5,319.5 C 209.167,320.5 208.5,321.167 207.5,321.5C 207.5,320.167 208.167,319.5 209.5,319.5 Z"/></g>
<g><path style="opacity:0.608" fill="#000000ff" d="M 207.5,321.5 C 207.573,323.027 206.906,324.027 205.5,324.5C 205.427,322.973 206.094,321.973 207.5,321.5 Z"/></g>
<g><path style="opacity:0.027" fill="#000000ff" d="M 229.5,323.5 C 228.92,325.749 227.587,327.415 225.5,328.5C 226.08,326.251 227.413,324.585 229.5,323.5 Z"/></g>
<g><path style="opacity:0.004" fill="#000000ff" d="M 224.5,329.5 C 224.5,330.833 223.833,331.5 222.5,331.5C 222.833,330.5 223.5,329.833 224.5,329.5 Z"/></g>
<g><path style="opacity:0.031" fill="#000000ff" d="M 222.5,331.5 C 222.573,333.027 221.906,334.027 220.5,334.5C 220.427,332.973 221.094,331.973 222.5,331.5 Z"/></g>
<g><path style="opacity:0.293" fill="#000000ff" d="M 220.5,334.5 C 219.526,344.418 219.193,354.418 219.5,364.5C 219.5,364.833 219.5,365.167 219.5,365.5C 218.834,360.511 218.501,355.344 218.5,350C 218.505,344.454 219.172,339.288 220.5,334.5 Z"/></g>
<g><path style="opacity:0.022" fill="#000000ff" d="M 297.5,339.5 C 297.664,342.187 297.497,344.854 297,347.5C 296.722,348.416 296.222,349.082 295.5,349.5C 295.899,345.989 296.566,342.656 297.5,339.5 Z"/></g>
<g><path style="opacity:0.165" fill="#000000ff" d="M 295.5,349.5 C 295.206,352.754 293.873,355.421 291.5,357.5C 292.326,354.515 293.659,351.849 295.5,349.5 Z"/></g>
<g><path style="opacity:0.227" fill="#000000ff" d="M 276.5,348.5 C 274.5,352.5 271.5,355.5 267.5,357.5C 270.167,354.167 273.167,351.167 276.5,348.5 Z"/></g>
<g><path style="opacity:0.094" fill="#000000ff" d="M 265.5,358.5 C 264.089,360.539 262.089,361.539 259.5,361.5C 261.181,359.992 263.181,358.992 265.5,358.5 Z"/></g>
<g><path style="opacity:0.027" fill="#000000ff" d="M 291.5,357.5 C 290.647,361.02 288.647,363.687 285.5,365.5C 287.122,362.545 289.122,359.878 291.5,357.5 Z"/></g>
<g><path style="opacity:0.141" fill="#000000ff" d="M 259.5,361.5 C 258.22,362.931 256.553,363.598 254.5,363.5C 255.78,362.069 257.447,361.402 259.5,361.5 Z"/></g>
<g><path style="opacity:0.071" fill="#000000ff" d="M 254.5,363.5 C 253.737,364.268 252.737,364.768 251.5,365C 240.839,365.5 230.172,365.667 219.5,365.5C 219.5,365.167 219.5,364.833 219.5,364.5C 231.19,364.695 242.856,364.361 254.5,363.5 Z"/></g>
<g><path style="opacity:0.024" fill="#000000ff" d="M 283.5,367.5 C 282.738,369.262 281.404,370.262 279.5,370.5C 279.5,370.167 279.5,369.833 279.5,369.5C 280.605,368.4 281.938,367.733 283.5,367.5 Z"/></g>
<g><path style="opacity:0.992" fill="#000000ff" d="M 279.5,369.5 C 279.5,369.833 279.5,370.167 279.5,370.5C 279.167,371.5 278.5,372.167 277.5,372.5C 277.167,372.5 276.833,372.5 276.5,372.5C 276.5,371.5 276.5,370.5 276.5,369.5C 277.5,369.5 278.5,369.5 279.5,369.5 Z"/></g>
<g><path style="opacity:0.055" fill="#000000ff" d="M 276.5,372.5 C 276.833,372.5 277.167,372.5 277.5,372.5C 276.713,374.104 275.38,374.771 273.5,374.5C 274.29,373.599 275.29,372.932 276.5,372.5 Z"/></g>
<g><path style="opacity:0.157" fill="#000000ff" d="M 273.5,374.5 C 271.421,376.873 268.754,378.206 265.5,378.5C 267.849,376.659 270.515,375.326 273.5,374.5 Z"/></g>
<g><path style="opacity:0.033" fill="#000000ff" d="M 265.5,378.5 C 260.631,381.213 255.298,382.546 249.5,382.5C 249.5,382.167 249.5,381.833 249.5,381.5C 254.885,380.756 260.218,379.756 265.5,378.5 Z"/></g>
<g><path style="opacity:0.542" fill="#000000ff" d="M 205.5,324.5 C 204.878,325.627 204.045,326.627 203,327.5C 202.5,345.497 202.333,363.497 202.5,381.5C 218.167,381.5 233.833,381.5 249.5,381.5C 249.5,381.833 249.5,382.167 249.5,382.5C 233.578,383.484 217.578,383.817 201.5,383.5C 201.333,364.497 201.5,345.497 202,326.5C 202.816,325.177 203.983,324.511 205.5,324.5 Z"/></g>
</svg>
