<?xml version="1.0" encoding="UTF-8"?>
<!DOCTYPE svg PUBLIC "-//W3C//DTD SVG 1.1//EN" "http://www.w3.org/Graphics/SVG/1.1/DTD/svg11.dtd">
<svg xmlns="http://www.w3.org/2000/svg" version="1.1" width="500px" height="500px" style="shape-rendering:geometricPrecision; text-rendering:geometricPrecision; image-rendering:optimizeQuality; fill-rule:evenodd; clip-rule:evenodd" xmlns:xlink="http://www.w3.org/1999/xlink">
<g><path style="opacity:0.976" fill="#fcfafa" d="M 298.5,156.5 C 297.804,172.038 297.137,187.705 296.5,203.5C 293.886,207.621 291.053,211.621 288,215.5C 266.49,240.54 244.99,265.54 223.5,290.5C 206.027,267.569 189.527,243.903 174,219.5C 173.241,217.937 172.074,216.937 170.5,216.5C 169.499,253.142 169.165,292.476 169.5,334.5C 163.642,334.178 157.975,334.511 152.5,335.5C 151.167,322.5 151.167,309.5 152.5,296.5C 153.829,262.167 153.829,228.5 152.5,195.5C 151.505,183.011 151.171,170.344 151.5,157.5C 155.056,159.218 157.89,161.884 160,165.5C 179.391,193.226 198.391,221.226 217,249.5C 219.675,253.005 222.509,256.339 225.5,259.5C 242.729,238.318 260.395,217.652 278.5,197.5C 279.117,197.389 279.617,197.056 280,196.5C 280.823,182.757 280.657,169.757 279.5,157.5C 277.704,147.856 272.037,141.356 262.5,138C 248.284,134.146 233.95,132.979 219.5,134.5C 218.82,166.833 218.153,199.833 217.5,233.5C 211.808,226.624 206.641,219.29 202,211.5C 201.5,179.502 201.333,147.502 201.5,115.5C 217.837,115.333 234.17,115.5 250.5,116C 266.789,116.929 280.289,123.429 291,135.5C 295.193,141.915 297.693,148.915 298.5,156.5 Z"/></g>
<g><path style="opacity:0.241" fill="#bcbcbc" d="M 219.5,134.5 C 219.833,167.84 219.5,201.173 218.5,234.5C 217.893,234.376 217.56,234.043 217.5,233.5C 218.153,199.833 218.82,166.833 219.5,134.5 Z"/></g>
<g><path style="opacity:0.968" fill="#fbf9f9" d="M 328.5,327.5 C 329.815,286.321 329.815,247.321 328.5,210.5C 291.877,251.634 255.71,293.3 220,335.5C 219.5,345.161 219.334,354.828 219.5,364.5C 231.214,364.861 242.881,364.361 254.5,363C 266.562,359.6 274.728,352.1 279,340.5C 279.333,319.833 279.667,299.167 280,278.5C 285.033,272.638 290.199,266.971 295.5,261.5C 296.117,261.389 296.617,261.056 297,260.5C 297.168,282.337 297.668,304.004 298.5,325.5C 300.355,353.96 287.688,372.46 260.5,381C 256.531,381.853 252.531,382.519 248.5,383C 232.837,383.5 217.17,383.667 201.5,383.5C 201.333,364.497 201.5,345.497 202,326.5C 250.042,271.13 298.042,215.797 346,160.5C 346.5,160.667 347,160.833 347.5,161C 347.492,218.959 347.492,277.126 347.5,335.5C 341.167,335.5 334.833,335.5 328.5,335.5C 328.5,332.833 328.5,330.167 328.5,327.5 Z"/></g>
<g><path style="opacity:0.086" fill="#e3e3e3" d="M 278.5,197.5 C 279.464,184.216 279.797,170.883 279.5,157.5C 280.657,169.757 280.823,182.757 280,196.5C 279.617,197.056 279.117,197.389 278.5,197.5 Z"/></g>
<g><path style="opacity:0.11" fill="#dbdbdb" d="M 298.5,156.5 C 298.667,171.837 298.5,187.17 298,202.5C 297.617,203.056 297.117,203.389 296.5,203.5C 297.137,187.705 297.804,172.038 298.5,156.5 Z"/></g>
<g><path style="opacity:0.318" fill="#aaaaaa" d="M 152.5,296.5 C 152.358,262.951 152.358,229.284 152.5,195.5C 153.829,228.5 153.829,262.167 152.5,296.5 Z"/></g>
<g><path style="opacity:0.114" fill="#dedede" d="M 298.5,325.5 C 297.668,304.004 297.168,282.337 297,260.5C 296.617,261.056 296.117,261.389 295.5,261.5C 295.821,259.952 296.821,259.285 298.5,259.5C 298.5,281.5 298.5,303.5 298.5,325.5 Z"/></g>
<g><path style="opacity:0.099" fill="#e9e9e9" d="M 328.5,327.5 C 328.5,288.5 328.5,249.5 328.5,210.5C 329.815,247.321 329.815,286.321 328.5,327.5 Z"/></g>
<g><path style="opacity:0.218" fill="#c5c5c5" d="M 170.5,216.5 C 170.5,256.167 170.5,295.833 170.5,335.5C 164.5,335.5 158.5,335.5 152.5,335.5C 157.975,334.511 163.642,334.178 169.5,334.5C 169.165,292.476 169.499,253.142 170.5,216.5 Z"/></g>
</svg>
